<?xml version="1.0" standalone="no"?>
<!DOCTYPE svg PUBLIC "-//W3C//DTD SVG 20010904//EN"
 "http://www.w3.org/TR/2001/REC-SVG-20010904/DTD/svg10.dtd">
<svg version="1.0" xmlns="http://www.w3.org/2000/svg"
 width="500.000000pt" height="500.000000pt" viewBox="0 0 500.000000 500.000000"
 preserveAspectRatio="xMidYMid meet">
<g transform="translate(0.000000,500.000000) scale(0.100000,-0.100000)"
fill="#000000" stroke="none">
<path d="M3210 3987 c55 -20 123 -87 73 -71 -15 5 -15 4 -3 -4 27 -18 33 -17
35 5 1 12 -2 21 -6 20 -4 -1 -15 7 -25 18 -22 23 -67 45 -92 45 -9 -1 -1 -7
18 -13z"/>
<path d="M3130 3968 c-40 -62 -44 -80 -43 -243 1 -156 19 -296 44 -334 8 -12
9 -10 4 9 -31 123 -36 170 -38 322 -1 122 1 170 11 179 6 7 12 21 12 31 0 10
3 18 8 18 4 0 13 9 20 20 17 28 0 25 -18 -2z"/>
<path d="M3180 3959 c0 -5 5 -7 10 -4 6 3 10 8 10 11 0 2 -4 4 -10 4 -5 0 -10
-5 -10 -11z"/>
<path d="M3210 3953 c0 -5 6 -15 13 -22 10 -10 8 -12 -7 -9 -10 2 -21 -4 -23
-12 -3 -9 -1 -11 4 -5 4 6 15 10 23 10 18 0 20 37 3 43 -7 2 -13 0 -13 -5z"/>
<path d="M3120 3876 c0 -31 6 -34 13 -6 3 11 1 23 -4 26 -5 3 -9 -6 -9 -20z"/>
<path d="M3147 3849 c-17 -64 -19 -99 -6 -99 5 0 9 20 9 44 0 25 5 57 10 72 6
15 8 29 6 31 -3 3 -11 -19 -19 -48z"/>
<path d="M3230 3891 c0 -6 4 -13 10 -16 6 -3 7 1 4 9 -7 18 -14 21 -14 7z"/>
<path d="M3338 3835 c9 -19 17 -33 19 -31 6 5 -19 66 -27 66 -4 0 0 -16 8 -35z"/>
<path d="M3251 3855 c1 -19 18 -51 18 -35 0 8 -4 22 -9 30 -5 8 -9 11 -9 5z"/>
<path d="M3178 3764 c-1 -31 0 -58 5 -61 4 -2 7 23 7 56 0 76 -7 79 -12 5z"/>
<path d="M3276 3775 c4 -16 11 -37 15 -45 6 -10 7 -4 3 15 -4 17 -11 37 -15
45 -6 10 -7 4 -3 -15z"/>
<path d="M3366 3765 c8 -37 14 -45 14 -19 0 10 -5 26 -10 34 -8 11 -9 7 -4
-15z"/>
<path d="M3328 3768 c9 -12 13 -28 30 -123 4 -22 10 -35 13 -30 4 6 0 45 -9
88 -10 54 -19 77 -30 77 -10 0 -12 -4 -4 -12z"/>
<path d="M3139 3733 c0 -5 -2 -16 -4 -25 -2 -10 1 -20 5 -23 5 -3 8 8 8 25 -1
27 -7 42 -9 23z"/>
<path d="M2283 3704 c-29 -12 -71 -69 -60 -80 2 -3 10 9 17 26 14 35 70 64
104 55 17 -5 18 -4 6 4 -19 13 -27 13 -67 -5z"/>
<path d="M3382 3705 c0 -11 4 -31 8 -45 6 -20 8 -21 8 -5 0 11 -4 31 -8 45 -6
20 -8 21 -8 5z"/>
<path d="M3302 3685 c0 -16 2 -22 5 -12 2 9 2 23 0 30 -3 6 -5 -1 -5 -18z"/>
<path d="M2370 3690 c0 -5 5 -10 11 -10 5 0 7 5 4 10 -3 6 -8 10 -11 10 -2 0
-4 -4 -4 -10z"/>
<path d="M2310 3669 c0 -5 5 -7 10 -4 6 3 10 8 10 11 0 2 -4 4 -10 4 -5 0 -10
-5 -10 -11z"/>
<path d="M2340 3670 c0 -5 5 -10 11 -10 5 0 7 5 4 10 -3 6 -8 10 -11 10 -2 0
-4 -4 -4 -10z"/>
<path d="M2400 3674 c0 -13 18 -39 24 -34 2 3 -2 14 -10 24 -8 11 -14 16 -14
10z"/>
<path d="M3139 3664 c-3 -22 3 -60 11 -68 6 -5 7 7 3 30 -6 39 -12 55 -14 38z"/>
<path d="M2257 3653 c-4 -3 -7 -13 -7 -22 1 -13 3 -13 11 2 11 19 8 33 -4 20z"/>
<path d="M2320 3630 c-6 -11 -9 -26 -6 -33 2 -7 5 -4 5 7 1 13 6 17 22 13 17
-5 18 -3 7 11 -7 9 -13 19 -14 20 -1 2 -8 -6 -14 -18z"/>
<path d="M2391 3626 c7 -15 15 -23 17 -16 3 7 -3 19 -13 28 -15 16 -16 15 -4
-12z"/>
<path d="M3312 3620 c0 -14 2 -19 5 -12 2 6 2 18 0 25 -3 6 -5 1 -5 -13z"/>
<path d="M3189 3625 c-3 -5 0 -32 7 -60 13 -55 17 -34 6 30 -4 22 -10 36 -13
30z"/>
<path d="M3389 3623 c0 -5 -2 -15 -4 -23 -1 -8 5 -22 13 -30 14 -13 15 -12 8
5 -5 11 -8 28 -8 38 1 16 -7 25 -9 10z"/>
<path d="M2236 3588 c-7 -29 5 -169 14 -163 3 2 3 28 -1 57 -11 75 -11 106 0
89 6 -9 9 -5 9 13 0 32 -14 34 -22 4z"/>
<path d="M2446 3595 c4 -11 17 -54 30 -95 13 -41 23 -68 23 -59 1 23 -36 140
-50 159 -9 12 -9 11 -3 -5z"/>
<path d="M2213 3525 c0 -44 2 -61 4 -37 2 23 2 59 0 80 -2 20 -4 1 -4 -43z"/>
<path d="M2285 3579 c-4 -5 -1 -8 6 -7 8 2 16 -11 20 -32 l6 -35 2 36 c1 36
-21 60 -34 38z"/>
<path d="M3151 3564 c0 -11 3 -14 6 -6 3 7 2 16 -1 19 -3 4 -6 -2 -5 -13z"/>
<path d="M2370 3553 c0 -4 5 -15 10 -23 8 -13 10 -13 10 2 0 9 -4 20 -10 23
-5 3 -10 3 -10 -2z"/>
<path d="M3324 3415 c0 -82 2 -115 3 -72 2 43 2 110 0 150 -1 40 -3 5 -3 -78z"/>
<path d="M3375 3530 c-3 -5 -1 -10 4 -10 6 0 11 5 11 10 0 6 -2 10 -4 10 -3 0
-8 -4 -11 -10z"/>
<path d="M2421 3504 c0 -11 3 -14 6 -6 3 7 2 16 -1 19 -3 4 -6 -2 -5 -13z"/>
<path d="M3160 3499 c0 -11 4 -18 10 -14 5 3 7 12 3 20 -7 21 -13 19 -13 -6z"/>
<path d="M3402 3495 c0 -16 2 -22 5 -12 2 9 2 23 0 30 -3 6 -5 -1 -5 -18z"/>
<path d="M2397 3450 c3 -30 8 -95 13 -145 l8 -90 -1 126 c-1 70 -5 125 -9 123
-4 -2 -8 6 -11 18 -2 13 -2 -2 0 -32z"/>
<path d="M3210 3468 c5 -17 7 -42 3 -56 -4 -16 -2 -23 4 -19 6 4 9 19 8 34 -1
15 -3 38 -3 51 -1 12 -6 22 -11 22 -6 0 -6 -12 -1 -32z"/>
<path d="M4453 3493 c21 -6 22 -16 0 -51 l-17 -27 22 22 c30 30 29 63 0 62
-17 -1 -19 -2 -5 -6z"/>
<path d="M4400 3480 c0 -5 -6 -10 -14 -10 -8 0 -18 -4 -21 -10 -7 -12 22 -2
50 17 17 11 17 13 2 13 -9 0 -17 -4 -17 -10z"/>
<path d="M2312 3408 c4 -35 10 -67 13 -73 3 -5 3 8 0 30 -3 22 -5 55 -5 73 0
17 -4 32 -8 32 -5 0 -5 -28 0 -62z"/>
<path d="M2460 3460 c0 -5 5 -10 11 -10 5 0 7 5 4 10 -3 6 -8 10 -11 10 -2 0
-4 -4 -4 -10z"/>
<path d="M3345 3460 c3 -5 8 -10 11 -10 2 0 4 5 4 10 0 6 -5 10 -11 10 -5 0
-7 -4 -4 -10z"/>
<path d="M4425 3450 c-10 -11 -24 -20 -31 -20 -8 0 -35 -13 -62 -30 -31 -19
-56 -28 -72 -24 l-25 5 23 -11 c15 -6 30 -7 41 0 10 5 21 7 25 5 3 -3 4 -2 1
1 -8 11 67 46 77 36 11 -11 -82 -73 -196 -131 -88 -45 -111 -61 -51 -37 57 24
189 97 193 107 2 5 9 9 16 9 7 0 25 14 42 32 16 17 23 28 17 24 -7 -4 -13 -2
-13 3 0 6 3 11 8 11 4 0 13 9 20 20 7 11 11 20 9 20 -2 0 -12 -9 -22 -20z"/>
<path d="M3175 3420 c4 -19 11 -39 16 -44 4 -5 3 8 -2 30 -14 50 -24 60 -14
14z"/>
<path d="M3390 3440 c0 -6 -4 -9 -8 -6 -4 2 -8 -4 -8 -15 0 -19 1 -18 18 3
l18 23 -4 -27 c-3 -17 1 -28 10 -32 10 -4 12 -2 8 5 -4 7 -7 21 -8 32 -1 21
-26 38 -26 17z"/>
<path d="M4285 3419 c-27 -16 -47 -29 -42 -29 12 0 97 42 103 51 9 15 -8 9
-61 -22z"/>
<path d="M2467 3410 c3 -11 7 -20 9 -20 2 0 4 9 4 20 0 11 -4 20 -9 20 -5 0
-7 -9 -4 -20z"/>
<path d="M1840 3397 c-29 -15 -50 -52 -49 -87 0 -17 5 -10 13 20 7 27 17 44
25 42 7 -1 10 2 7 7 -4 5 7 12 24 16 50 11 115 -40 163 -130 9 -16 16 -25 17
-20 1 31 -77 128 -122 151 -33 17 -46 17 -78 1z"/>
<path d="M3231 3385 c1 -19 18 -51 18 -35 0 8 -4 22 -9 30 -5 8 -9 11 -9 5z"/>
<path d="M4132 3343 c-68 -34 -90 -49 -82 -57 8 -8 15 -7 23 4 7 8 18 15 25
16 28 2 33 4 28 13 -6 9 69 46 90 45 6 -1 11 5 11 12 0 8 -1 14 -1 13 -1 0
-43 -21 -94 -46z"/>
<path d="M2245 3370 c3 -5 8 -10 11 -10 2 0 4 5 4 10 0 6 -5 10 -11 10 -5 0
-7 -4 -4 -10z"/>
<path d="M2472 3360 c0 -14 2 -19 5 -12 2 6 2 18 0 25 -3 6 -5 1 -5 -13z"/>
<path d="M1873 3354 c-17 -14 -17 -15 2 -6 11 5 26 7 33 5 17 -6 15 4 -2 10
-8 3 -22 -1 -33 -9z"/>
<path d="M3130 3365 c0 -5 5 -17 10 -25 5 -8 10 -10 10 -5 0 6 -5 17 -10 25
-5 8 -10 11 -10 5z"/>
<path d="M3370 3366 c0 -2 7 -9 15 -16 9 -7 15 -8 15 -2 0 5 -7 12 -15 16 -8
3 -15 4 -15 2z"/>
<path d="M1827 3353 c-16 -16 -3 -228 13 -218 4 3 4 24 -1 47 -11 60 -11 136
1 159 10 18 1 27 -13 12z"/>
<path d="M4223 3346 c-13 -6 -23 -14 -23 -18 0 -13 10 -9 37 12 28 22 22 24
-14 6z"/>
<path d="M2440 3305 c0 -25 5 -45 10 -45 6 0 10 20 10 45 0 25 -4 45 -10 45
-5 0 -10 -20 -10 -45z"/>
<path d="M2233 3305 c0 -22 2 -30 4 -17 2 12 2 30 0 40 -3 9 -5 -1 -4 -23z"/>
<path d="M1952 3310 c7 -11 17 -20 21 -20 5 0 6 -7 3 -16 -3 -8 -2 -13 2 -11
9 6 33 -19 26 -26 -3 -3 -1 -8 4 -11 18 -11 7 21 -22 63 -29 41 -57 59 -34 21z"/>
<path d="M2475 3310 c2 -31 15 -37 15 -7 0 15 -4 27 -8 27 -5 0 -8 -9 -7 -20z"/>
<path d="M2752 3295 c-18 -19 -32 -40 -32 -47 0 -7 9 0 20 17 10 16 30 37 42
47 13 10 18 18 12 18 -6 0 -25 -16 -42 -35z"/>
<path d="M2853 3324 c9 -3 17 -12 17 -19 0 -22 -60 -86 -74 -78 -6 3 -8 3 -4
-2 4 -4 0 -14 -10 -21 -9 -8 -12 -14 -5 -14 6 0 15 5 18 11 4 6 14 8 22 5 8
-4 11 -1 7 5 -3 6 8 26 26 44 35 36 37 69 5 72 -16 1 -16 1 -2 -3z"/>
<path d="M3195 3320 c-3 -5 1 -10 10 -10 10 0 13 -5 9 -12 -4 -7 -3 -8 5 -4 9
6 9 11 0 22 -14 17 -16 17 -24 4z"/>
<path d="M3244 3312 c0 -10 6 -19 13 -19 8 0 9 6 2 19 -5 10 -11 18 -12 18 -2
0 -3 -8 -3 -18z"/>
<path d="M4130 3300 c-30 -16 -64 -30 -75 -32 -11 -2 -23 -7 -27 -13 -4 -5
-10 -6 -14 -2 -4 3 -1 14 7 23 12 15 10 15 -25 0 -21 -9 -40 -16 -43 -16 -2 0
-1 -5 3 -12 5 -8 2 -9 -10 -5 -21 8 -79 -20 -70 -34 3 -6 11 -4 18 6 12 17 90
30 80 14 -3 -5 -13 -9 -22 -9 -10 0 -26 -6 -37 -13 -35 -24 -88 -38 -99 -27
-7 7 -5 10 6 10 9 0 20 5 24 12 4 6 3 9 -2 6 -23 -12 -104 -48 -110 -48 -3 0
-33 -13 -67 -29 -34 -16 -90 -41 -124 -57 -35 -15 -61 -29 -59 -31 2 -2 29 8
60 22 31 14 82 37 114 51 101 46 151 64 156 55 3 -5 -9 -14 -27 -21 -59 -22
-72 -27 -117 -48 -76 -34 -113 -50 -160 -68 -25 -9 -49 -21 -54 -26 -6 -4 -18
-8 -28 -8 -9 0 -23 -10 -29 -22 -12 -22 -11 -22 8 -5 11 9 25 17 31 17 6 0 40
14 74 30 34 17 67 30 75 30 7 0 13 4 13 8 0 4 8 8 19 9 22 2 114 43 122 56 3
5 10 8 15 7 8 -1 37 7 54 15 66 29 83 35 93 29 7 -4 9 -4 5 1 -4 4 14 19 40
32 39 20 50 22 67 12 18 -11 18 -10 7 3 -11 14 -8 17 15 26 60 21 153 66 153
74 0 4 -1 8 -2 7 -2 -1 -28 -14 -58 -29z m-125 -58 c-2 -3 -12 -1 -22 2 -15 6
-15 9 -3 16 13 8 35 -8 25 -18z"/>
<path d="M1891 3269 c1 -30 5 -67 9 -84 5 -18 6 3 3 50 -7 93 -14 113 -12 34z"/>
<path d="M3151 3300 c0 -14 4 -32 9 -40 9 -13 10 -13 9 0 -1 8 -5 26 -9 40
l-8 25 -1 -25z"/>
<path d="M3398 3255 c-1 -36 0 -65 5 -65 4 0 7 29 7 65 0 36 -2 65 -4 65 -2 0
-6 -29 -8 -65z"/>
<path d="M1910 3303 c0 -5 7 -18 15 -29 13 -18 14 -18 8 4 -5 22 -23 41 -23
25z"/>
<path d="M2829 3283 c-13 -16 -12 -17 4 -4 9 7 17 15 17 17 0 8 -8 3 -21 -13z"/>
<path d="M2330 3274 c0 -10 5 -26 10 -34 8 -11 9 -7 4 15 -8 37 -14 45 -14 19z"/>
<path d="M2776 3274 c-5 -14 -4 -15 9 -4 17 14 19 20 6 20 -5 0 -12 -7 -15
-16z"/>
<path d="M3210 3272 c0 -15 28 -23 36 -9 4 7 4 9 -1 5 -4 -4 -14 -3 -22 3 -8
7 -13 8 -13 1z"/>
<path d="M3267 3260 c3 -14 12 -41 20 -60 11 -30 12 -31 8 -6 -4 16 -13 43
-20 60 -11 23 -13 25 -8 6z"/>
<path d="M1791 3254 c0 -11 3 -14 6 -6 3 7 2 16 -1 19 -3 4 -6 -2 -5 -13z"/>
<path d="M1946 3251 c-3 -5 3 -29 14 -52 11 -24 20 -38 20 -31 0 7 -7 26 -15
43 -9 16 -13 34 -10 39 3 6 4 10 1 10 -3 0 -7 -4 -10 -9z"/>
<path d="M2745 3240 c-3 -5 -1 -10 4 -10 6 0 11 5 11 10 0 6 -2 10 -4 10 -3 0
-8 -4 -11 -10z"/>
<path d="M3322 3220 c0 -19 2 -27 5 -17 2 9 2 25 0 35 -3 9 -5 1 -5 -18z"/>
<path d="M2241 3230 c0 -8 4 -24 9 -35 5 -13 9 -14 9 -5 0 8 -4 24 -9 35 -5
13 -9 14 -9 5z"/>
<path d="M3170 3230 c0 -8 5 -22 10 -30 9 -13 10 -13 10 0 0 8 -5 22 -10 30
-9 13 -10 13 -10 0z"/>
<path d="M1792 3210 c0 -14 4 -38 8 -55 7 -27 8 -27 8 -5 0 14 -4 39 -8 55 -7
27 -8 27 -8 5z"/>
<path d="M1980 3221 c0 -5 9 -19 20 -32 l20 -24 -16 33 c-15 32 -24 40 -24 23z"/>
<path d="M2041 3230 c-1 -3 8 -30 20 -60 11 -30 19 -56 17 -57 -1 -1 1 -5 6
-10 13 -12 -2 44 -24 92 -10 22 -19 38 -19 35z"/>
<path d="M4085 3220 c-3 -6 1 -7 9 -4 18 7 21 14 7 14 -6 0 -13 -4 -16 -10z"/>
<path d="M2755 3209 c-4 -6 -5 -12 -2 -15 2 -3 7 2 10 11 7 17 1 20 -8 4z"/>
<path d="M2020 3201 c0 -5 5 -13 10 -16 6 -3 10 -2 10 4 0 5 -4 13 -10 16 -5
3 -10 2 -10 -4z"/>
<path d="M2300 3199 c0 -5 5 -7 10 -4 6 3 10 8 10 11 0 2 -4 4 -10 4 -5 0 -10
-5 -10 -11z"/>
<path d="M2469 3188 c0 -13 -2 -31 -4 -40 -2 -10 1 -18 6 -18 5 0 9 18 9 40 0
42 -9 57 -11 18z"/>
<path d="M3240 3191 c0 -5 5 -13 10 -16 6 -3 10 -2 10 4 0 5 -4 13 -10 16 -5
3 -10 2 -10 -4z"/>
<path d="M2413 3171 c0 -11 5 -18 9 -15 4 3 5 11 1 19 -7 21 -12 19 -10 -4z"/>
<path d="M3995 3181 c-11 -5 -23 -7 -27 -4 -5 2 -8 -1 -8 -8 0 -7 -3 -10 -6
-6 -3 3 -24 -5 -45 -19 -21 -13 -43 -24 -48 -24 -5 0 -13 -5 -17 -12 -4 -6 -3
-9 2 -6 9 5 46 22 139 64 47 21 54 32 10 15z"/>
<path d="M3320 3176 c0 -2 7 -7 16 -10 8 -3 12 -2 9 4 -6 10 -25 14 -25 6z"/>
<path d="M3385 3145 c0 -14 3 -25 8 -25 4 0 7 11 7 25 0 14 -3 25 -7 25 -5 0
-8 -11 -8 -25z"/>
<path d="M3260 3146 c0 -8 4 -17 9 -20 5 -4 7 3 4 14 -6 23 -13 26 -13 6z"/>
<path d="M3300 3151 c0 -5 5 -13 10 -16 6 -3 10 -2 10 4 0 5 -4 13 -10 16 -5
3 -10 2 -10 -4z"/>
<path d="M1897 3130 c3 -11 7 -20 9 -20 2 0 4 9 4 20 0 11 -4 20 -9 20 -5 0
-7 -9 -4 -20z"/>
<path d="M1981 3140 c0 -8 4 -24 9 -35 l9 -20 0 20 c0 11 -4 27 -9 35 -9 13
-10 13 -9 0z"/>
<path d="M2266 3120 c8 -43 38 -133 62 -189 15 -37 20 -41 30 -28 10 12 10 17
1 23 -8 4 -9 3 -5 -4 4 -7 3 -12 -2 -12 -5 0 -15 19 -22 43 -8 23 -17 47 -22
53 -5 7 -8 16 -7 20 1 5 -3 22 -9 37 -7 16 -12 36 -12 45 0 9 -5 24 -11 32 -7
11 -8 6 -3 -20z"/>
<path d="M2491 3128 c-1 -16 -6 -26 -13 -24 -7 1 -10 1 -5 -1 4 -3 7 -19 8
-36 1 -28 2 -26 10 13 5 25 7 52 5 60 -2 8 -4 3 -5 -12z"/>
<path d="M2351 3127 c9 -6 19 -23 23 -35 5 -13 10 -22 12 -19 9 9 -15 55 -33
61 -16 5 -16 5 -2 -7z"/>
<path d="M3345 3130 c3 -5 8 -10 11 -10 2 0 4 5 4 10 0 6 -5 10 -11 10 -5 0
-7 -4 -4 -10z"/>
<path d="M2020 3121 c0 -6 5 -11 11 -11 6 0 9 -7 5 -15 -3 -8 -1 -15 4 -15 15
0 12 26 -5 40 -10 9 -15 9 -15 1z"/>
<path d="M3210 3123 c0 -5 15 -38 34 -75 18 -37 30 -71 27 -76 -3 -5 -19 -17
-36 -26 -27 -15 -27 -16 -5 -10 14 3 33 14 42 25 16 18 15 23 -17 86 -19 37
-31 71 -29 75 3 4 0 8 -5 8 -6 0 -11 -3 -11 -7z"/>
<path d="M3249 3116 c13 -16 51 -41 51 -33 0 2 -15 14 -32 27 -21 15 -28 17
-19 6z"/>
<path d="M1401 3116 c2 -3 22 -6 43 -8 30 -2 41 -8 52 -30 8 -15 17 -28 20
-28 2 0 0 9 -6 20 -6 11 -8 26 -4 32 4 6 3 8 -4 4 -6 -3 -13 -3 -16 2 -2 4
-24 9 -48 11 -23 1 -40 0 -37 -3z"/>
<path d="M3340 3100 c0 -5 5 -10 10 -10 6 0 10 5 10 10 0 6 -4 10 -10 10 -5 0
-10 -4 -10 -10z"/>
<path d="M3376 3086 c-3 -13 -8 -30 -11 -38 -2 -7 2 -21 10 -31 11 -15 17 -17
32 -8 17 11 17 11 -2 9 -18 -3 -20 2 -18 45 1 52 -2 59 -11 23z"/>
<path d="M1368 3093 c7 -3 16 -2 19 1 4 3 -2 6 -13 5 -11 0 -14 -3 -6 -6z"/>
<path d="M1910 3091 c0 -6 4 -13 10 -16 6 -3 7 1 4 9 -7 18 -14 21 -14 7z"/>
<path d="M2397 3064 c-4 -25 -1 -43 9 -58 16 -21 16 -21 8 4 -4 14 -6 40 -5
58 2 43 -5 41 -12 -4z"/>
<path d="M3796 3091 c-4 -5 3 -7 14 -4 23 6 26 13 6 13 -8 0 -17 -4 -20 -9z"/>
<path d="M1456 3016 c3 -44 9 -87 14 -95 10 -19 2 86 -11 139 -6 24 -7 11 -3
-44z"/>
<path d="M2092 3080 c0 -8 4 -26 8 -40 6 -20 8 -21 8 -5 0 11 -3 29 -8 40 -5
12 -8 14 -8 5z"/>
<path d="M3760 3075 c-11 -13 -10 -14 4 -9 9 3 16 10 16 15 0 13 -6 11 -20 -6z"/>
<path d="M1343 3064 c-3 -8 -1 -25 5 -37 9 -19 10 -17 9 15 -2 42 -5 46 -14
22z"/>
<path d="M1816 3055 c8 -37 14 -45 14 -19 0 10 -5 26 -10 34 -8 11 -9 7 -4
-15z"/>
<path d="M2045 3049 c6 -30 15 -37 15 -11 0 11 -4 23 -9 27 -6 3 -8 -4 -6 -16z"/>
<path d="M3685 3041 c-22 -11 -35 -19 -30 -19 14 -1 93 36 80 37 -5 0 -28 -8
-50 -18z"/>
<path d="M1920 3038 c0 -9 5 -20 10 -23 13 -8 13 5 0 25 -8 13 -10 13 -10 -2z"/>
<path d="M2012 3025 c0 -16 2 -22 5 -12 2 9 2 23 0 30 -3 6 -5 -1 -5 -18z"/>
<path d="M2447 3030 c-3 -11 -1 -23 4 -26 5 -3 9 6 9 20 0 31 -6 34 -13 6z"/>
<path d="M2909 3040 c-10 -6 -15 -24 -16 -52 0 -31 1 -34 4 -11 3 25 8 31 21
26 13 -4 12 -2 -3 10 -22 17 -26 14 50 30 13 3 9 5 -10 6 -16 0 -37 -4 -46 -9z"/>
<path d="M1890 3030 c0 -5 5 -10 10 -10 6 0 10 5 10 10 0 6 -4 10 -10 10 -5 0
-10 -4 -10 -10z"/>
<path d="M2994 3020 c3 -14 8 -55 11 -93 6 -56 10 -69 28 -78 20 -9 20 -9 5 4
-12 10 -19 36 -24 88 -4 41 -11 81 -15 89 -7 11 -8 8 -5 -10z"/>
<path d="M3440 3030 c-8 -5 -10 -10 -5 -10 6 0 17 5 25 10 8 5 11 10 5 10 -5
0 -17 -5 -25 -10z"/>
<path d="M2947 3015 c3 -8 9 -12 14 -9 12 7 11 11 -5 17 -10 4 -13 1 -9 -8z"/>
<path d="M3571 2994 c-43 -20 -56 -22 -64 -12 -6 10 -8 9 -4 -4 4 -12 -5 -21
-34 -32 -21 -9 -39 -18 -39 -22 0 -10 51 -94 61 -100 6 -3 -4 17 -22 46 -17
28 -30 52 -28 54 2 1 45 20 94 41 86 37 121 56 100 54 -6 0 -34 -12 -64 -25z"/>
<path d="M1831 3000 c0 -16 41 -137 77 -226 11 -29 19 -55 16 -58 -2 -3 -1 -4
3 -1 9 7 11 55 2 49 -8 -4 -14 12 -64 156 -19 52 -34 88 -34 80z"/>
<path d="M2065 2966 c2 -27 7 -51 10 -54 8 -8 4 50 -6 78 -6 18 -7 12 -4 -24z"/>
<path d="M2107 2991 c-4 -17 -3 -21 5 -13 5 5 8 16 6 23 -3 8 -7 3 -11 -10z"/>
<path d="M3340 3001 c0 -6 5 -13 10 -16 6 -3 10 1 10 9 0 9 -4 16 -10 16 -5 0
-10 -4 -10 -9z"/>
<path d="M1511 2990 c0 -8 4 -24 9 -35 l9 -20 0 20 c0 11 -4 27 -9 35 -9 13
-10 13 -9 0z"/>
<path d="M1920 2990 c-9 -6 -10 -10 -3 -10 6 0 15 5 18 10 8 12 4 12 -15 0z"/>
<path d="M2639 2973 c-13 -16 -12 -17 3 -5 9 8 27 12 39 10 22 -3 27 -9 48
-58 10 -24 10 -24 4 5 -8 39 -31 65 -58 65 -13 0 -29 -8 -36 -17z"/>
<path d="M1940 2975 c0 -5 5 -17 10 -25 5 -8 10 -10 10 -5 0 6 -5 17 -10 25
-5 8 -10 11 -10 5z"/>
<path d="M2124 2834 c1 -78 4 -140 9 -137 9 5 7 136 -2 218 -6 44 -7 22 -7
-81z"/>
<path d="M2456 2935 c-4 -19 -3 -42 2 -51 6 -10 9 1 10 35 1 60 -3 65 -12 16z"/>
<path d="M3370 2959 c0 -8 10 -30 22 -49 12 -19 22 -37 23 -40 1 -10 49 -85
57 -88 5 -2 6 -8 2 -13 -3 -5 -1 -9 5 -9 5 0 9 9 8 19 0 11 -5 17 -9 15 -4 -3
-8 1 -8 10 0 8 -5 16 -10 18 -6 2 -12 13 -13 25 0 12 -4 20 -8 17 -4 -2 -12
10 -19 26 -7 17 -17 30 -22 30 -5 0 -7 3 -4 8 2 4 -2 16 -10 27 -10 13 -14 15
-14 4z"/>
<path d="M2960 2951 c0 -6 5 -13 10 -16 6 -3 10 1 10 9 0 9 -4 16 -10 16 -5 0
-10 -4 -10 -9z"/>
<path d="M1900 2940 c0 -5 5 -10 11 -10 5 0 7 5 4 10 -3 6 -8 10 -11 10 -2 0
-4 -4 -4 -10z"/>
<path d="M2033 2910 c0 -25 2 -35 4 -22 2 12 2 32 0 45 -2 12 -4 2 -4 -23z"/>
<path d="M2606 2904 c-9 -26 -16 -52 -15 -58 0 -6 9 13 20 43 10 30 17 56 15
58 -2 2 -11 -17 -20 -43z"/>
<path d="M1326 2818 c-15 -68 -30 -132 -33 -143 -3 -16 -2 -17 6 -5 5 8 13 36
16 62 4 26 11 46 15 43 5 -3 12 0 16 6 4 8 3 9 -4 5 -16 -9 -15 0 4 74 8 33
14 66 12 71 -2 6 -16 -45 -32 -113z"/>
<path d="M2417 2925 c-4 -8 -3 -16 1 -19 4 -3 9 4 9 15 2 23 -3 25 -10 4z"/>
<path d="M2875 2885 c-4 -31 -5 -58 -3 -61 3 -2 8 21 12 52 4 31 5 59 2 61 -2
3 -8 -21 -11 -52z"/>
<path d="M1962 2918 c3 -7 13 -37 23 -66 9 -29 19 -52 21 -49 5 5 -36 127 -43
127 -3 0 -3 -6 -1 -12z"/>
<path d="M3175 2920 c-3 -6 1 -7 9 -4 18 7 21 14 7 14 -6 0 -13 -4 -16 -10z"/>
<path d="M2690 2909 c0 -5 5 -7 10 -4 6 3 10 8 10 11 0 2 -4 4 -10 4 -5 0 -10
-5 -10 -11z"/>
<path d="M2975 2881 c3 -24 7 -46 10 -49 8 -8 4 40 -6 68 -6 19 -7 14 -4 -19z"/>
<path d="M3279 2903 c-13 -16 -12 -17 3 -5 29 23 29 -4 1 -60 -32 -65 -46 -80
-62 -67 -8 6 -8 5 -1 -3 14 -17 -16 -66 -50 -81 -11 -5 -9 -6 4 -4 22 2 74 68
113 144 24 46 28 50 39 35 12 -15 12 -15 8 5 -4 12 -14 29 -24 38 -16 14 -18
14 -31 -2z"/>
<path d="M3090 2885 c-59 -31 -40 -31 25 0 28 13 43 23 35 23 -8 0 -35 -11
-60 -23z"/>
<path d="M1370 2889 c0 -5 5 -7 10 -4 6 3 10 8 10 11 0 2 -4 4 -10 4 -5 0 -10
-5 -10 -11z"/>
<path d="M2077 2842 c7 -75 14 -81 12 -9 -1 32 -5 60 -10 62 -4 3 -5 -21 -2
-53z"/>
<path d="M1531 2874 c0 -11 3 -14 6 -6 3 7 2 16 -1 19 -3 4 -6 -2 -5 -13z"/>
<path d="M2740 2859 c0 -19 4 -41 9 -48 6 -10 8 1 4 30 -7 55 -13 63 -13 18z"/>
<path d="M2910 2885 c0 -5 5 -17 10 -25 5 -8 10 -10 10 -5 0 6 -5 17 -10 25
-5 8 -10 11 -10 5z"/>
<path d="M1474 2871 c4 -5 0 -12 -6 -14 -8 -3 -6 -6 5 -6 9 -1 17 6 17 14 0 8
-5 15 -11 15 -5 0 -8 -4 -5 -9z"/>
<path d="M2350 2871 c0 -5 5 -13 10 -16 6 -3 10 -2 10 4 0 5 -4 13 -10 16 -5
3 -10 2 -10 -4z"/>
<path d="M1930 2855 c0 -8 4 -15 10 -15 5 0 7 7 4 15 -4 8 -8 15 -10 15 -2 0
-4 -7 -4 -15z"/>
<path d="M2701 2852 c-1 -15 -5 -21 -13 -16 -7 5 -8 3 -3 -5 10 -18 28 2 22
25 -4 15 -5 14 -6 -4z"/>
<path d="M2445 2848 c-6 -18 -1 -38 18 -73 21 -38 22 -19 2 29 -9 20 -13 41
-10 46 4 6 4 10 0 10 -3 0 -8 -6 -10 -12z"/>
<path d="M2472 2855 c0 -5 6 -26 13 -45 7 -19 14 -28 14 -20 0 8 -6 29 -14 45
-7 17 -13 26 -13 20z"/>
<path d="M3174 2844 c-19 -15 -19 -15 1 -6 11 5 27 12 35 15 13 5 13 6 -1 6
-8 1 -24 -6 -35 -15z"/>
<path d="M3255 2850 c-3 -5 -1 -10 4 -10 6 0 11 5 11 10 0 6 -2 10 -4 10 -3 0
-8 -4 -11 -10z"/>
<path d="M1538 2823 c5 -21 7 -23 10 -9 2 10 0 22 -6 28 -6 6 -7 0 -4 -19z"/>
<path d="M2111 2824 c0 -11 3 -14 6 -6 3 7 2 16 -1 19 -3 4 -6 -2 -5 -13z"/>
<path d="M2352 2820 c0 -14 2 -19 5 -12 2 6 2 18 0 25 -3 6 -5 1 -5 -13z"/>
<path d="M2606 2831 c-4 -5 -2 -12 3 -15 5 -4 12 -2 15 3 4 5 2 12 -3 15 -5 4
-12 2 -15 -3z"/>
<path d="M2907 2833 c-12 -11 -8 -23 8 -23 8 0 15 -5 15 -12 0 -6 2 -9 5 -7 6
7 -6 49 -14 49 -4 0 -11 -3 -14 -7z"/>
<path d="M3125 2831 c-3 -5 0 -13 6 -17 7 -4 9 -3 5 4 -3 5 0 13 6 15 9 4 10
6 1 6 -6 1 -14 -3 -18 -8z"/>
<path d="M3176 2800 c-14 -22 -23 -40 -19 -40 5 0 18 18 31 40 29 52 22 52
-12 0z"/>
<path d="M3348 2822 c16 -37 67 -122 75 -122 4 0 -8 25 -28 56 -19 30 -33 59
-30 64 3 4 -2 10 -10 13 -10 4 -12 1 -7 -11z"/>
<path d="M1427 2823 c-3 -5 -3 -23 2 -39 6 -25 8 -26 13 -9 6 24 -6 63 -15 48z"/>
<path d="M2581 2815 c-1 -11 -4 -31 -6 -45 l-6 -25 11 25 c6 13 9 33 7 45 -4
19 -4 19 -6 0z"/>
<path d="M2657 2810 c3 -11 9 -17 14 -15 10 7 1 35 -11 35 -5 0 -6 -9 -3 -20z"/>
<path d="M3390 2824 c0 -13 18 -39 24 -34 2 3 -2 14 -10 24 -8 11 -14 16 -14
10z"/>
<path d="M1491 2804 c0 -11 3 -14 6 -6 3 7 2 16 -1 19 -3 4 -6 -2 -5 -13z"/>
<path d="M1945 2811 c-3 -5 -1 -12 5 -16 5 -3 10 1 10 9 0 18 -6 21 -15 7z"/>
<path d="M2048 2785 c2 -19 6 -35 8 -35 2 0 4 16 4 35 0 19 -4 35 -8 35 -4 0
-6 -16 -4 -35z"/>
<path d="M2382 2800 c0 -14 2 -19 5 -12 2 6 2 18 0 25 -3 6 -5 1 -5 -13z"/>
<path d="M2797 2813 c-9 -8 12 -33 27 -33 6 0 19 7 29 14 17 13 16 14 -7 12
-13 0 -22 -5 -19 -10 3 -5 0 -6 -8 -4 -8 3 -13 11 -11 17 2 12 -2 14 -11 4z"/>
<path d="M2985 2810 c3 -5 8 -10 11 -10 2 0 4 5 4 10 0 6 -5 10 -11 10 -5 0
-7 -4 -4 -10z"/>
<path d="M3020 2816 c0 -2 8 -10 18 -17 15 -13 16 -12 3 4 -13 16 -21 21 -21
13z"/>
<path d="M3070 2810 c-13 -9 -13 -10 0 -10 8 0 22 5 30 10 13 9 13 10 0 10 -8
0 -22 -5 -30 -10z"/>
<path d="M3511 2790 c16 -31 39 -55 39 -40 0 6 -12 23 -26 38 -26 27 -26 27
-13 2z"/>
<path d="M1371 2787 c-8 -10 -7 -14 2 -14 8 0 14 6 14 14 0 7 -1 13 -2 13 -2
0 -8 -6 -14 -13z"/>
<path d="M2642 2770 c0 -19 2 -27 5 -17 2 9 2 25 0 35 -3 9 -5 1 -5 -18z"/>
<path d="M1404 2732 c0 -36 2 -49 7 -37 10 26 11 83 2 88 -5 3 -8 -20 -9 -51z"/>
<path d="M1552 2775 c0 -11 4 -31 8 -45 6 -20 8 -21 8 -5 0 11 -4 31 -8 45 -6
20 -8 21 -8 5z"/>
<path d="M2016 2771 c4 -14 12 -38 19 -54 10 -24 13 -26 19 -12 3 10 4 20 1
23 -3 3 -5 1 -5 -4 0 -5 -9 9 -20 31 -11 22 -17 29 -14 16z"/>
<path d="M2606 2775 c-3 -8 -1 -15 4 -15 6 0 10 7 10 15 0 8 -2 15 -4 15 -2 0
-6 -7 -10 -15z"/>
<path d="M2993 2776 c3 -8 3 -17 -1 -20 -3 -4 -7 -14 -8 -22 -1 -9 1 -13 4 -9
4 4 7 12 7 18 1 7 7 11 13 9 10 -2 10 3 2 18 -12 23 -25 27 -17 6z"/>
<path d="M2664 2759 c0 -10 4 -19 8 -19 4 0 8 6 8 14 0 8 -4 17 -8 20 -4 2 -8
-4 -8 -15z"/>
<path d="M2746 2772 c-2 -4 4 -8 15 -8 10 0 19 4 19 8 0 4 -6 8 -14 8 -8 0
-17 -4 -20 -8z"/>
<path d="M2932 2768 c-7 -7 -11 -21 -11 -32 1 -21 1 -21 6 -1 3 11 10 26 15
33 13 15 6 16 -10 0z"/>
<path d="M3040 2778 c0 -17 24 -57 38 -63 14 -5 14 -4 0 12 -8 10 -20 27 -26
38 -6 11 -12 17 -12 13z"/>
<path d="M2830 2760 c-9 -6 -10 -10 -3 -10 6 0 15 5 18 10 8 12 4 12 -15 0z"/>
<path d="M1502 2740 c0 -14 2 -19 5 -12 2 6 2 18 0 25 -3 6 -5 1 -5 -13z"/>
<path d="M1976 2752 c-3 -5 1 -9 9 -9 8 0 12 4 9 9 -3 4 -7 8 -9 8 -2 0 -6 -4
-9 -8z"/>
<path d="M2080 2740 c0 -19 3 -21 12 -12 9 9 9 15 0 24 -9 9 -12 7 -12 -12z"/>
<path d="M3172 2737 c-17 -18 -19 -24 -7 -24 8 0 13 3 10 5 -3 3 2 14 12 24
24 27 10 22 -15 -5z"/>
<path d="M3503 2736 c0 -14 22 -48 57 -87 48 -53 60 -62 72 -51 7 7 9 12 3 10
-11 -3 -53 24 -51 33 0 4 -18 32 -40 62 -34 46 -41 52 -41 33z m37 -41 l25
-30 -27 24 c-16 14 -28 29 -28 34 0 6 1 8 3 6 1 -2 13 -17 27 -34z"/>
<path d="M1440 2735 c0 -8 4 -15 10 -15 5 0 7 7 4 15 -4 8 -8 15 -10 15 -2 0
-4 -7 -4 -15z"/>
<path d="M2342 2730 c0 -14 2 -19 5 -12 2 6 2 18 0 25 -3 6 -5 1 -5 -13z"/>
<path d="M2596 2733 c-6 -14 -5 -15 5 -6 7 7 10 15 7 18 -3 3 -9 -2 -12 -12z"/>
<path d="M2880 2727 c0 -13 -7 -38 -16 -56 -9 -18 -13 -35 -10 -38 3 -3 11 7
17 23 22 56 28 84 18 89 -5 4 -9 -5 -9 -18z"/>
<path d="M3120 2735 c-17 -10 -20 -14 -9 -15 9 0 22 7 29 15 15 18 12 18 -20
0z"/>
<path d="M3430 2741 c0 -5 5 -13 10 -16 6 -3 10 -2 10 4 0 5 -4 13 -10 16 -5
3 -10 2 -10 -4z"/>
<path d="M2475 2715 c4 -16 16 -57 26 -89 11 -33 19 -68 19 -80 0 -15 3 -17
11 -9 9 9 9 19 -1 42 -6 17 -12 34 -12 38 0 4 -5 19 -10 33 -5 14 -12 36 -15
50 -2 14 -9 30 -14 35 -7 7 -8 0 -4 -20z"/>
<path d="M2511 2723 c-1 -18 4 -23 22 -22 15 1 17 3 5 6 -9 2 -19 12 -21 21
-3 12 -5 10 -6 -5z"/>
<path d="M2570 2729 c0 -5 -4 -7 -10 -4 -5 3 -10 4 -10 1 0 -3 9 -10 19 -15
16 -9 18 -8 14 9 -6 21 -13 27 -13 9z"/>
<path d="M2792 2729 c-19 -6 -30 -14 -26 -20 4 -7 9 -7 13 -2 9 15 61 25 61
13 0 -6 5 -8 10 -5 13 8 3 25 -13 24 -7 0 -27 -5 -45 -10z"/>
<path d="M3560 2730 c0 -8 24 -40 53 -71 28 -31 45 -46 37 -35 -8 11 -23 29
-34 41 -10 11 -27 34 -37 50 -10 17 -19 23 -19 15z"/>
<path d="M2960 2724 c0 -14 59 -81 60 -67 0 6 -5 15 -10 18 -6 4 -7 11 -4 17
4 6 2 8 -4 4 -6 -3 -18 4 -26 16 -9 12 -16 18 -16 12z"/>
<path d="M1946 2712 c-2 -4 -1 -14 4 -22 7 -11 9 -9 7 8 -1 24 -3 26 -11 14z"/>
<path d="M2414 2698 c5 -23 3 -26 -14 -23 -11 2 -18 0 -15 -5 9 -14 40 -4 43
15 2 9 -2 22 -8 29 -10 8 -11 5 -6 -16z"/>
<path d="M3365 2711 c-3 -5 -2 -12 3 -15 5 -3 9 1 9 9 0 17 -3 19 -12 6z"/>
<path d="M1452 2685 c0 -16 2 -22 5 -12 2 9 2 23 0 30 -3 6 -5 -1 -5 -18z"/>
<path d="M1555 2689 c11 -13 21 -26 22 -28 2 -2 3 2 3 10 0 8 -10 20 -22 28
l-23 14 20 -24z"/>
<path d="M2080 2701 c0 -5 7 -11 14 -14 10 -4 13 -1 9 9 -6 15 -23 19 -23 5z"/>
<path d="M2332 2680 c0 -14 2 -19 5 -12 2 6 2 18 0 25 -3 6 -5 1 -5 -13z"/>
<path d="M2826 2683 c-6 -14 -5 -15 5 -6 7 7 10 15 7 18 -3 3 -9 -2 -12 -12z"/>
<path d="M3085 2690 c4 -6 11 -8 16 -5 14 9 11 15 -7 15 -8 0 -12 -5 -9 -10z"/>
<path d="M1530 2681 c0 -6 4 -13 10 -16 6 -3 7 1 4 9 -7 18 -14 21 -14 7z"/>
<path d="M2539 2673 c-13 -16 -12 -17 4 -4 16 13 21 21 13 21 -2 0 -10 -8 -17
-17z"/>
<path d="M2640 2680 c-11 -7 -6 -8 16 -4 28 5 32 3 42 -23 11 -33 69 -103 84
-103 6 0 -6 16 -26 36 -21 21 -43 52 -51 70 -14 35 -36 43 -65 24z"/>
<path d="M2730 2680 c0 -5 5 -10 11 -10 5 0 7 5 4 10 -3 6 -8 10 -11 10 -2 0
-4 -4 -4 -10z"/>
<path d="M2781 2680 c-1 -23 17 -46 26 -35 5 6 6 9 4 7 -3 -1 -11 8 -18 20 -8
14 -12 17 -12 8z"/>
<path d="M3446 2665 c9 -14 18 -25 20 -25 2 0 -2 11 -8 25 -6 14 -15 25 -20
25 -5 0 -1 -11 8 -25z"/>
<path d="M1330 2653 c0 -16 -6 -40 -14 -54 -9 -18 -10 -31 -4 -40 8 -11 9 -10
5 3 -3 9 -1 18 4 20 6 2 13 22 16 46 3 25 10 39 16 35 6 -3 7 -1 3 5 -13 21
-26 13 -26 -15z"/>
<path d="M1957 2657 c-3 -8 1 -14 9 -14 16 0 19 13 5 21 -5 3 -11 0 -14 -7z"/>
<path d="M2122 2628 c-2 -50 5 -63 28 -46 12 8 12 9 -2 4 -14 -4 -18 3 -21 42
l-3 47 -2 -47z"/>
<path d="M2892 2646 c-6 -14 -19 -34 -28 -45 -14 -16 -21 -18 -33 -9 -13 10
-14 10 -3 -2 14 -16 16 -34 3 -25 -5 3 -13 0 -17 -6 -4 -8 -3 -9 4 -5 7 4 12
2 12 -5 0 -7 11 3 25 22 33 46 57 90 52 95 -2 2 -9 -7 -15 -20z"/>
<path d="M3138 2663 c6 -2 18 -2 25 0 6 3 1 5 -13 5 -14 0 -19 -2 -12 -5z"/>
<path d="M2416 2645 c-11 -8 -14 -15 -7 -15 7 0 10 -4 7 -8 -2 -4 4 -8 15 -8
10 0 19 4 19 8 0 4 -5 8 -11 8 -6 0 -9 7 -5 15 7 18 6 18 -18 0z"/>
<path d="M2547 2627 c-3 -17 -1 -36 3 -40 4 -5 10 8 12 28 5 45 -8 57 -15 12z"/>
<path d="M2746 2643 c-6 -14 -5 -15 5 -6 7 7 10 15 7 18 -3 3 -9 -2 -12 -12z"/>
<path d="M3485 2650 c-3 -5 -3 -10 2 -10 4 0 3 -4 -4 -8 -7 -4 8 -24 44 -54
47 -42 60 -48 96 -47 l42 2 -47 6 c-37 5 -57 16 -87 45 -25 24 -38 45 -36 57
4 21 0 25 -10 9z"/>
<path d="M1286 2642 c-2 -4 -7 -25 -10 -47 -6 -37 -4 -36 11 5 11 30 11 61 -1
42z"/>
<path d="M1450 2624 c0 -16 5 -36 10 -44 6 -10 7 -2 3 25 -7 49 -13 58 -13 19z"/>
<path d="M1582 2630 c0 -14 2 -19 5 -12 2 6 2 18 0 25 -3 6 -5 1 -5 -13z"/>
<path d="M2310 2640 c0 -5 7 -7 15 -4 8 4 15 8 15 10 0 2 -7 4 -15 4 -8 0 -15
-4 -15 -10z"/>
<path d="M2531 2634 c0 -11 3 -14 6 -6 3 7 2 16 -1 19 -3 4 -6 -2 -5 -13z"/>
<path d="M3030 2646 c0 -2 7 -6 15 -10 8 -3 15 -1 15 4 0 6 -7 10 -15 10 -8 0
-15 -2 -15 -4z"/>
<path d="M3076 2641 c-4 -5 3 -7 14 -4 23 6 26 13 6 13 -8 0 -17 -4 -20 -9z"/>
<path d="M1391 2624 c0 -11 3 -14 6 -6 3 7 2 16 -1 19 -3 4 -6 -2 -5 -13z"/>
<path d="M2036 2632 c-3 -5 1 -15 9 -22 16 -14 20 -3 6 19 -5 8 -11 9 -15 3z"/>
<path d="M2760 2625 c-11 -13 -10 -14 4 -9 9 3 16 10 16 15 0 13 -6 11 -20 -6z"/>
<path d="M1999 2595 c22 -39 21 -40 -49 -61 -27 -8 -50 -18 -50 -23 0 -12 30
-9 30 3 0 6 8 2 16 -9 16 -20 16 -20 10 0 -5 16 1 22 29 31 40 13 50 8 32 -15
-11 -14 -10 -14 5 -2 10 7 15 18 11 25 -4 6 -8 16 -9 22 -2 14 -34 64 -41 64
-3 0 4 -16 16 -35z"/>
<path d="M2258 2622 c-15 -6 -14 -9 7 -19 14 -6 25 -7 25 -2 0 5 -6 9 -12 9
-9 0 -8 4 2 10 17 11 4 12 -22 2z"/>
<path d="M2619 2550 c-8 -128 -40 -160 -100 -101 -16 16 -29 26 -29 21 0 -14
60 -60 78 -60 9 0 22 4 29 8 18 12 34 92 31 157 -3 58 -3 57 -9 -25z"/>
<path d="M2350 2609 c0 -5 5 -7 10 -4 6 3 10 8 10 11 0 2 -4 4 -10 4 -5 0 -10
-5 -10 -11z"/>
<path d="M1376 2597 c3 -10 9 -15 12 -12 3 3 0 11 -7 18 -10 9 -11 8 -5 -6z"/>
<path d="M2190 2600 c-21 -7 -21 -8 -5 -9 11 0 27 4 35 9 18 11 5 11 -30 0z"/>
<path d="M2385 2596 c-6 -6 -8 -22 -5 -36 6 -23 7 -22 12 10 7 41 6 42 -7 26z"/>
<path d="M3679 2578 c-3 -22 -1 -34 4 -29 5 5 7 21 5 37 -3 27 -4 26 -9 -8z"/>
<path d="M1508 2583 c-7 -25 7 -30 32 -12 13 9 13 10 -2 5 -11 -3 -18 1 -20
12 -3 13 -5 12 -10 -5z"/>
<path d="M2457 2580 c3 -14 12 -41 20 -60 11 -30 12 -31 8 -6 -4 16 -13 43
-20 60 -11 23 -13 25 -8 6z"/>
<path d="M1597 2551 c4 -32 3 -42 -5 -37 -18 11 -14 2 7 -16 19 -16 19 -15 14
20 -3 20 -10 46 -14 57 -5 12 -6 2 -2 -24z"/>
<path d="M2270 2570 c-8 -5 -10 -10 -5 -10 6 0 17 5 25 10 8 5 11 10 5 10 -5
0 -17 -5 -25 -10z"/>
<path d="M2306 2555 c-4 -14 -10 -24 -15 -21 -4 3 -6 -7 -3 -22 4 -19 7 -22
10 -9 2 9 7 15 10 13 4 -2 8 11 9 30 2 40 -2 44 -11 9z"/>
<path d="M3646 2565 c4 -8 10 -12 15 -9 11 6 2 24 -11 24 -5 0 -7 -7 -4 -15z"/>
<path d="M2230 2562 c0 -5 -18 -14 -40 -21 -22 -6 -40 -16 -40 -22 0 -6 -5 -7
-12 -3 -7 4 -8 3 -4 -5 4 -6 11 -9 15 -6 10 5 33 -43 27 -54 -3 -4 1 -8 9 -8
11 0 9 9 -6 39 l-20 38 28 10 c60 22 67 26 55 34 -7 4 -12 3 -12 -2z"/>
<path d="M1472 2525 c-1 -22 6 -53 14 -70 8 -16 12 -21 8 -10 -3 11 -10 43
-14 70 -7 49 -8 49 -8 10z"/>
<path d="M1366 2524 c-4 -14 -5 -28 -3 -31 3 -2 8 8 11 23 4 14 5 28 3 31 -3
2 -8 -8 -11 -23z"/>
<path d="M1510 2546 c0 -1 4 -16 9 -32 5 -16 12 -41 15 -56 4 -16 11 -28 17
-28 6 0 6 6 0 18 -5 9 -9 20 -10 25 -2 33 -15 77 -22 77 -5 0 -9 -2 -9 -4z"/>
<path d="M2080 2546 c0 -2 7 -7 16 -10 8 -3 12 -2 9 4 -6 10 -25 14 -25 6z"/>
<path d="M1301 2523 c-10 -21 -22 -107 -12 -98 6 7 30 115 25 115 -2 0 -7 -8
-13 -17z"/>
<path d="M2367 2511 c-4 -17 -3 -21 5 -13 5 5 8 16 6 23 -3 8 -7 3 -11 -10z"/>
<path d="M1252 2500 c0 -14 2 -19 5 -12 2 6 2 18 0 25 -3 6 -5 1 -5 -13z"/>
<path d="M2539 2508 c-6 -18 -3 -46 3 -42 5 4 7 12 4 19 -3 8 3 16 12 18 16 4
15 5 0 6 -10 0 -18 0 -19 -1z"/>
<path d="M1844 2485 c-18 -13 -18 -14 5 -8 16 4 22 3 17 -5 -3 -6 -2 -13 3
-17 6 -3 8 4 6 16 -6 30 -9 31 -31 14z"/>
<path d="M2013 2489 c-28 -10 -31 -23 -3 -14 17 5 20 2 20 -26 0 -30 -1 -31
-18 -16 -10 10 -27 17 -38 17 -16 0 -17 2 -4 10 8 5 11 10 5 10 -14 0 -30 -13
-32 -26 -1 -7 8 -9 24 -6 20 4 24 2 18 -8 -5 -9 -4 -11 4 -6 6 4 19 2 27 -5
20 -17 26 -7 22 39 -3 36 -5 39 -25 31z"/>
<path d="M1915 2481 c-3 -5 -2 -12 3 -15 5 -3 9 1 9 9 0 17 -3 19 -12 6z"/>
<path d="M1775 2461 c-22 -11 -62 -29 -88 -40 -49 -21 -49 -21 -54 -1 -3 11
-9 20 -15 20 -5 0 -4 -9 2 -20 6 -11 8 -25 5 -30 -3 -5 18 1 47 14 73 33 92
39 101 38 4 -1 7 3 7 8 0 6 9 10 20 10 11 0 20 5 20 10 0 13 2 13 -45 -9z"/>
<path d="M2266 2435 c-20 -51 -27 -54 -50 -22 -15 19 -15 20 -7 1 23 -49 37
-47 60 7 12 28 20 53 18 55 -2 3 -12 -16 -21 -41z"/>
<path d="M1615 2460 c-3 -5 -1 -10 4 -10 6 0 11 5 11 10 0 6 -2 10 -4 10 -3 0
-8 -4 -11 -10z"/>
<path d="M2355 2449 c-10 -30 -2 -32 12 -3 6 13 7 24 3 24 -5 0 -12 -9 -15
-21z"/>
<path d="M2570 2460 c0 -5 5 -10 11 -10 5 0 7 5 4 10 -3 6 -8 10 -11 10 -2 0
-4 -4 -4 -10z"/>
<path d="M1236 2443 c-13 -49 -17 -87 -8 -78 5 6 12 29 15 53 5 43 2 55 -7 25z"/>
<path d="M1350 2438 c0 -9 -6 -19 -12 -21 -10 -4 -10 -6 0 -6 14 -1 28 26 18
36 -3 4 -6 -1 -6 -9z"/>
<path d="M1900 2435 c-7 -8 -16 -12 -21 -9 -5 2 -25 -5 -46 -16 -35 -19 -30
-20 15 -3 9 4 1 -12 -20 -35 -51 -57 -48 -63 5 -10 57 57 84 78 91 71 3 -4 6
-1 6 5 0 17 -15 15 -30 -3z"/>
<path d="M2071 2408 c1 -28 3 -34 6 -18 3 14 10 28 17 32 8 6 7 8 -2 8 -7 0
-10 5 -7 10 3 6 1 10 -4 10 -6 0 -10 -18 -10 -42z"/>
<path d="M2304 2432 c4 -7 3 -12 -1 -12 -5 0 -14 -13 -20 -30 -16 -42 -1 -38
19 5 10 23 12 37 5 42 -6 3 -7 1 -3 -5z"/>
<path d="M1491 2410 c0 -8 4 -22 9 -30 12 -18 12 -2 0 25 -6 13 -9 15 -9 5z"/>
<path d="M1766 2408 c3 -5 10 -6 15 -3 13 9 11 12 -6 12 -8 0 -12 -4 -9 -9z"/>
<path d="M1950 2416 c0 -2 7 -7 16 -10 8 -3 12 -2 9 4 -6 10 -25 14 -25 6z"/>
<path d="M2130 2411 c0 -6 4 -13 10 -16 6 -3 7 1 4 9 -7 18 -14 21 -14 7z"/>
<path d="M1270 2393 c0 -10 -3 -29 -7 -43 -3 -14 -2 -21 2 -17 5 4 10 13 11
20 2 7 5 22 8 35 3 12 1 22 -5 22 -5 0 -9 -8 -9 -17z"/>
<path d="M1906 2394 c-11 -8 -16 -14 -10 -14 13 0 39 18 34 24 -3 2 -14 -2
-24 -10z"/>
<path d="M2110 2401 c0 -7 -4 -10 -8 -7 -5 3 -6 -9 -3 -27 5 -32 6 -32 9 -4 3
23 5 25 18 13 8 -8 14 -19 14 -24 0 -22 62 -62 93 -60 l32 1 -32 4 c-33 4 -60
27 -99 82 -13 19 -24 29 -24 22z"/>
<path d="M2336 2395 c-9 -26 -7 -32 5 -12 6 10 9 21 6 23 -2 3 -7 -2 -11 -11z"/>
<path d="M1550 2384 c0 -8 5 -12 10 -9 6 4 8 11 5 16 -9 14 -15 11 -15 -7z"/>
<path d="M1698 2393 c7 -3 16 -2 19 1 4 3 -2 6 -13 5 -11 0 -14 -3 -6 -6z"/>
<path d="M2000 2391 c0 -5 6 -14 14 -20 12 -10 13 -8 9 8 -5 21 -23 30 -23 12z"/>
<path d="M2176 2383 c-6 -14 -5 -15 5 -6 7 7 10 15 7 18 -3 3 -9 -2 -12 -12z"/>
<path d="M1655 2368 l-20 -21 23 12 c12 6 22 16 22 21 0 13 -2 12 -25 -12z"/>
<path d="M1760 2380 c-8 -5 -10 -10 -5 -10 6 0 17 5 25 10 8 5 11 10 5 10 -5
0 -17 -5 -25 -10z"/>
<path d="M1929 2364 c-13 -14 -32 -35 -41 -45 -10 -10 -15 -19 -12 -19 4 0 1
-6 -5 -14 -7 -8 -15 -39 -18 -68 -5 -48 -3 -57 21 -84 l27 -29 -22 37 c-17 31
-20 47 -14 87 4 27 15 58 26 70 10 11 19 23 19 28 0 4 12 20 27 35 15 15 24
28 21 28 -3 0 -16 -12 -29 -26z"/>
<path d="M1976 2377 c3 -10 9 -15 12 -12 3 3 0 11 -7 18 -10 9 -11 8 -5 -6z"/>
<path d="M2200 2371 c0 -5 5 -13 10 -16 6 -3 10 -2 10 4 0 5 -4 13 -10 16 -5
3 -10 2 -10 -4z"/>
<path d="M1720 2360 c-9 -6 -10 -10 -3 -10 6 0 15 5 18 10 8 12 4 12 -15 0z"/>
<path d="M1331 2344 c0 -11 3 -14 6 -6 3 7 2 16 -1 19 -3 4 -6 -2 -5 -13z"/>
<path d="M1686 2351 c-4 -7 -5 -15 -2 -18 9 -9 19 4 14 18 -4 11 -6 11 -12 0z"/>
<path d="M1470 2340 c-9 -6 -10 -10 -3 -10 6 0 15 5 18 10 8 12 4 12 -15 0z"/>
<path d="M1992 2320 c0 -19 2 -27 5 -17 2 9 2 25 0 35 -3 9 -5 1 -5 -18z"/>
<path d="M1657 2333 c-4 -3 -7 -16 -6 -27 0 -19 1 -19 10 3 10 24 8 36 -4 24z"/>
<path d="M1415 2321 c-11 -5 -24 -6 -29 -3 -5 3 -6 1 -3 -4 3 -6 -7 -15 -24
-21 -26 -10 -29 -9 -30 10 -1 20 -2 20 -8 -3 -4 -14 -6 -27 -5 -29 2 -2 21 4
42 12 22 9 43 13 47 9 5 -4 5 -1 1 6 -5 8 0 12 13 12 11 0 23 5 26 10 7 12 -2
12 -30 1z"/>
<path d="M1822 2309 c-19 -30 -8 -34 12 -4 9 14 13 25 9 25 -5 0 -14 -9 -21
-21z"/>
<path d="M2082 2293 c-6 -20 -10 -39 -8 -41 2 -2 9 13 16 33 7 20 10 38 8 41
-3 2 -10 -13 -16 -33z"/>
<path d="M2279 2308 c-12 -23 -12 -23 10 -4 23 21 26 26 11 26 -5 0 -15 -10
-21 -22z"/>
<path d="M1206 2305 c-3 -9 -6 -22 -5 -28 0 -7 5 -1 10 12 5 13 8 26 5 28 -2
2 -6 -3 -10 -12z"/>
<path d="M1481 2301 c-7 -5 -9 -11 -5 -14 5 -3 15 1 22 9 14 16 5 18 -17 5z"/>
<path d="M1573 2296 c4 -10 7 -22 7 -27 0 -5 4 -9 9 -9 12 0 2 38 -12 47 -7 4
-8 0 -4 -11z"/>
<path d="M1770 2291 c-6 -12 -7 -21 -1 -21 10 0 24 30 17 37 -2 3 -9 -5 -16
-16z"/>
<path d="M2025 2290 c-4 -12 -5 -24 -2 -27 3 -2 8 5 12 17 4 12 5 24 2 27 -3
2 -8 -5 -12 -17z"/>
<path d="M1446 2273 c-6 -14 -5 -15 5 -6 7 7 10 15 7 18 -3 3 -9 -2 -12 -12z"/>
<path d="M1481 2264 c-18 -8 -31 -17 -29 -20 6 -5 78 24 78 31 0 8 -12 5 -49
-11z"/>
<path d="M1666 2255 c11 -48 25 -76 18 -35 -4 19 -10 42 -15 50 -6 10 -7 5 -3
-15z"/>
<path d="M1985 2260 c-4 -12 -5 -24 -2 -27 3 -2 8 5 12 17 4 12 5 24 2 27 -3
2 -8 -5 -12 -17z"/>
<path d="M1400 2260 c0 -5 5 -10 11 -10 5 0 7 5 4 10 -3 6 -8 10 -11 10 -2 0
-4 -4 -4 -10z"/>
<path d="M1192 2240 c0 -14 2 -19 5 -12 2 6 2 18 0 25 -3 6 -5 1 -5 -13z"/>
<path d="M1215 2250 c-3 -5 -1 -10 4 -10 6 0 11 5 11 10 0 6 -2 10 -4 10 -3 0
-8 -4 -11 -10z"/>
<path d="M1531 2250 c0 -8 4 -22 9 -30 12 -18 12 -2 0 25 -6 13 -9 15 -9 5z"/>
<path d="M1756 2238 c-14 -53 -4 -128 16 -128 6 0 5 7 -2 15 -9 10 -11 35 -7
75 5 63 3 75 -7 38z"/>
<path d="M1405 2230 c-8 -13 5 -13 25 0 13 8 13 10 -2 10 -9 0 -20 -4 -23 -10z"/>
<path d="M2049 2206 c-7 -19 -17 -32 -22 -29 -6 3 -7 1 -3 -6 4 -6 -3 -27 -15
-47 -17 -28 -24 -33 -31 -22 -8 10 -9 9 -5 -3 3 -9 0 -22 -6 -28 -9 -9 -8 -11
3 -6 31 12 111 158 95 173 -2 2 -9 -12 -16 -32z"/>
<path d="M1308 2223 c7 -3 16 -2 19 1 4 3 -2 6 -13 5 -11 0 -14 -3 -6 -6z"/>
<path d="M1370 2215 c-11 -13 -10 -14 4 -9 9 3 16 10 16 15 0 13 -6 11 -20 -6z"/>
<path d="M1602 2198 c6 -18 15 -38 19 -44 5 -6 3 -16 -4 -24 -7 -8 -8 -11 -1
-7 7 4 14 -2 17 -13 3 -11 10 -20 16 -20 8 0 8 6 2 18 -13 24 -24 54 -26 72
-3 23 -16 50 -26 50 -4 0 -3 -15 3 -32z"/>
<path d="M1145 2210 c-8 -13 5 -13 25 0 13 8 13 10 -2 10 -9 0 -20 -4 -23 -10z"/>
<path d="M1560 2209 c0 -5 5 -7 10 -4 6 3 10 8 10 11 0 2 -4 4 -10 4 -5 0 -10
-5 -10 -11z"/>
<path d="M1966 2205 c-9 -26 -7 -32 5 -12 6 10 9 21 6 23 -2 3 -7 -2 -11 -11z"/>
<path d="M2003 2202 c-3 -12 -9 -22 -14 -22 -5 0 -9 -8 -9 -17 0 -12 7 -7 21
15 12 18 19 36 15 39 -4 4 -9 -3 -13 -15z"/>
<path d="M1110 2190 c-12 -7 -10 -9 7 -7 12 0 19 5 17 9 -6 10 -6 10 -24 -2z"/>
<path d="M1315 2190 c-8 -13 5 -13 25 0 13 8 13 10 -2 10 -9 0 -20 -4 -23 -10z"/>
<path d="M1792 2175 c0 -16 2 -22 5 -12 2 9 2 23 0 30 -3 6 -5 -1 -5 -18z"/>
<path d="M1166 2178 c3 -5 10 -6 15 -3 13 9 11 12 -6 12 -8 0 -12 -4 -9 -9z"/>
<path d="M1551 2187 c-1 -4 6 -24 14 -43 8 -20 12 -41 8 -48 -4 -8 -3 -8 6 0
9 8 7 21 -8 55 -11 24 -20 40 -20 36z"/>
<path d="M995 2145 c-72 -35 -83 -47 -18 -20 20 9 43 13 50 10 8 -2 11 0 8 5
-10 16 37 30 55 16 13 -10 13 -9 1 7 -17 21 -12 22 -96 -18z"/>
<path d="M1282 2150 l-2 -30 62 0 c35 0 74 -3 88 -5 22 -5 22 -4 5 4 -11 5
-49 10 -84 10 -62 1 -63 1 -57 26 4 14 3 25 -2 25 -4 0 -9 -13 -10 -30z"/>
<path d="M1683 2154 c-11 -23 -10 -24 4 -12 14 11 15 10 9 -12 -6 -20 -5 -22
4 -8 5 9 7 25 2 37 -7 19 -8 19 -19 -5z"/>
<path d="M1218 2145 c-3 -14 -1 -25 3 -25 5 0 9 4 9 9 0 5 3 16 6 25 3 9 2 16
-4 16 -5 0 -12 -11 -14 -25z"/>
<path d="M1930 2143 c-14 -14 -19 -24 -11 -22 13 5 49 49 40 49 -2 0 -15 -12
-29 -27z"/>
<path d="M1146 2132 c-3 -5 1 -9 9 -9 8 0 15 4 15 9 0 4 -4 8 -9 8 -6 0 -12
-4 -15 -8z"/>
<path d="M1810 2125 c0 -8 5 -15 10 -15 6 0 10 7 10 15 0 8 -4 15 -10 15 -5 0
-10 -7 -10 -15z"/>
<path d="M1050 2098 c-5 -14 -9 -17 -9 -8 -1 9 -10 16 -20 16 -11 0 -18 -3
-15 -7 5 -9 -114 -51 -126 -44 -6 4 -9 1 -8 -6 2 -7 -6 -15 -17 -17 -34 -7
-38 -19 -6 -18 16 1 27 3 25 5 -8 8 58 31 69 24 6 -3 7 -1 3 5 -10 16 16 15
34 0 12 -11 12 -10 2 3 -10 14 -10 18 4 23 9 3 20 4 25 0 5 -3 9 0 9 7 0 7 8
5 22 -7 12 -10 18 -13 14 -6 -4 6 -3 12 3 12 5 0 9 9 8 20 -2 26 -6 25 -17 -2z"/>
<path d="M1091 2111 c-9 -6 -10 -11 -2 -15 6 -4 11 -2 11 3 0 6 5 11 11 11 5
0 8 -4 5 -9 -4 -5 4 -7 16 -3 21 5 21 6 2 13 -25 10 -27 10 -43 0z"/>
<path d="M1671 2103 c7 -12 15 -20 18 -17 3 2 -3 12 -13 22 -17 16 -18 16 -5
-5z"/>
<path d="M1711 2114 c-1 -15 30 -106 35 -101 2 2 -5 28 -15 58 -11 30 -20 49
-20 43z"/>
<path d="M1940 2109 c0 -5 5 -7 10 -4 6 3 10 8 10 11 0 2 -4 4 -10 4 -5 0 -10
-5 -10 -11z"/>
<path d="M893 2100 c-13 -5 -23 -11 -23 -14 0 -7 40 6 46 15 6 10 6 10 -23 -1z"/>
<path d="M1490 2095 c14 -8 30 -14 35 -14 6 0 -1 6 -15 14 -14 8 -29 14 -35
14 -5 0 1 -6 15 -14z"/>
<path d="M1906 2102 c-3 -5 1 -9 9 -9 8 0 12 4 9 9 -3 4 -7 8 -9 8 -2 0 -6 -4
-9 -8z"/>
<path d="M800 2090 c-9 -6 -10 -10 -3 -10 6 0 15 5 18 10 8 12 4 12 -15 0z"/>
<path d="M1595 2069 c6 -18 5 -19 -13 -10 -28 15 -57 4 -41 -15 9 -11 15 -11
25 -3 11 9 18 8 29 -1 21 -18 27 -8 16 24 -12 31 -25 35 -16 5z"/>
<path d="M1106 2072 c-3 -5 1 -9 9 -9 8 0 15 4 15 9 0 4 -4 8 -9 8 -6 0 -12
-4 -15 -8z"/>
<path d="M1486 2063 c-6 -14 -5 -15 5 -6 7 7 10 15 7 18 -3 3 -9 -2 -12 -12z"/>
<path d="M1648 2064 c6 -12 9 -24 5 -27 -3 -4 1 -9 10 -13 9 -3 14 -14 12 -25
-2 -11 0 -17 6 -14 14 9 11 35 -5 41 -8 3 -13 11 -10 18 3 7 -3 19 -12 27 -16
13 -16 12 -6 -7z"/>
<path d="M790 2055 c-14 -8 -20 -14 -15 -14 6 0 21 6 35 14 14 8 21 14 15 14
-5 0 -21 -6 -35 -14z"/>
<path d="M1818 2039 c18 -16 39 -29 47 -29 26 0 85 28 85 40 0 7 -6 5 -15 -3
-32 -32 -120 -28 -112 4 1 6 -7 13 -18 15 -16 2 -13 -3 13 -27z"/>
<path d="M1253 2050 c-28 -11 -29 -16 -3 -16 11 0 20 4 20 8 0 4 19 9 43 11
l42 4 -40 1 c-22 0 -50 -3 -62 -8z"/>
<path d="M1187 2036 c-4 -10 -5 -21 -2 -24 9 -9 17 6 13 25 -3 17 -4 17 -11
-1z"/>
<path d="M633 2025 c0 -8 4 -12 9 -9 5 3 6 10 3 15 -9 13 -12 11 -12 -6z"/>
<path d="M740 2030 c-9 -6 -10 -10 -3 -10 6 0 15 5 18 10 8 12 4 12 -15 0z"/>
<path d="M1070 2026 c7 -7 13 -7 20 0 6 6 3 10 -10 10 -13 0 -16 -4 -10 -10z"/>
<path d="M1117 2020 c3 -11 8 -20 12 -20 4 0 7 9 7 20 0 11 -6 20 -12 20 -7 0
-10 -8 -7 -20z"/>
<path d="M1391 2036 c2 -2 18 -6 34 -10 22 -5 26 -4 15 4 -14 9 -59 15 -49 6z"/>
<path d="M1597 2006 c15 -13 30 -22 33 -19 5 5 -41 42 -53 43 -4 0 5 -11 20
-24z"/>
<path d="M1019 2015 c-3 -2 -30 -11 -60 -19 -29 -8 -45 -15 -34 -15 11 0 47 8
80 19 33 10 51 19 39 19 -11 1 -23 -1 -25 -4z"/>
<path d="M1235 2000 c-4 -12 -5 -24 -2 -27 3 -2 8 5 12 17 4 12 5 24 2 27 -3
2 -8 -5 -12 -17z"/>
<path d="M1470 2010 c8 -5 20 -10 25 -10 6 0 3 5 -5 10 -8 5 -19 10 -25 10 -5
0 -3 -5 5 -10z"/>
<path d="M631 1984 c-30 -13 -52 -26 -50 -29 3 -2 28 7 57 21 29 14 57 22 64
18 7 -4 8 -3 4 4 -9 16 -12 15 -75 -14z"/>
<path d="M1550 2000 c8 -6 24 -16 35 -22 18 -9 17 -8 -2 11 -12 11 -28 21 -35
21 -9 0 -9 -3 2 -10z"/>
<path d="M750 1990 c-8 -5 -10 -10 -5 -10 6 0 17 5 25 10 8 5 11 10 5 10 -5 0
-17 -5 -25 -10z"/>
<path d="M849 1983 c-13 -16 -12 -17 4 -4 9 7 17 15 17 17 0 8 -8 3 -21 -13z"/>
<path d="M1515 1990 c3 -5 8 -10 11 -10 2 0 4 5 4 10 0 6 -5 10 -11 10 -5 0
-7 -4 -4 -10z"/>
<path d="M1756 1985 c3 -11 7 -26 7 -32 0 -7 4 -13 7 -13 4 0 13 -14 20 -30 7
-17 15 -29 17 -26 2 2 -10 30 -27 62 -17 33 -28 50 -24 39z"/>
<path d="M700 1969 c0 -5 5 -7 10 -4 6 3 10 8 10 11 0 2 -4 4 -10 4 -5 0 -10
-5 -10 -11z"/>
<path d="M785 1970 c3 -5 8 -10 11 -10 2 0 4 5 4 10 0 6 -5 10 -11 10 -5 0 -7
-4 -4 -10z"/>
<path d="M870 1970 c-8 -5 -10 -10 -5 -10 6 0 17 5 25 10 8 5 11 10 5 10 -5 0
-17 -5 -25 -10z"/>
<path d="M1040 1976 c0 -2 8 -10 18 -17 15 -13 16 -12 3 4 -13 16 -21 21 -21
13z"/>
<path d="M1104 1964 c-3 -10 -10 -28 -14 -39 -5 -11 -11 -29 -13 -40 -3 -11
-19 -58 -36 -104 -35 -95 -39 -118 -10 -51 11 25 20 45 19 45 0 0 15 45 34 99
20 55 34 102 31 104 -2 3 -7 -4 -11 -14z"/>
<path d="M1167 1973 c-10 -9 -9 -23 2 -23 5 0 11 7 15 15 5 15 -5 20 -17 8z"/>
<path d="M1555 1965 c11 -8 27 -21 36 -30 14 -13 18 -14 25 -3 4 7 4 10 0 7
-4 -4 -19 4 -33 17 -14 13 -31 24 -37 24 -6 0 -2 -7 9 -15z"/>
<path d="M659 1958 c-6 -21 -5 -37 2 -32 5 3 6 10 3 16 -5 8 -1 9 10 5 10 -4
15 -3 11 3 -5 9 -24 14 -26 8z"/>
<path d="M730 1950 c0 -5 5 -10 11 -10 5 0 7 5 4 10 -3 6 -8 10 -11 10 -2 0
-4 -4 -4 -10z"/>
<path d="M805 1950 c-8 -13 5 -13 25 0 13 8 13 10 -2 10 -9 0 -20 -4 -23 -10z"/>
<path d="M1705 1935 c7 -33 12 -41 21 -33 3 4 -2 19 -11 35 l-16 28 6 -30z"/>
<path d="M500 1927 c-14 -7 -41 -19 -60 -27 -43 -17 -90 -48 -90 -60 0 -16 38
-31 46 -18 4 7 3 8 -4 4 -7 -4 -12 -2 -12 4 0 6 -5 8 -11 4 -7 -4 -10 -2 -8 5
5 15 32 31 119 70 36 17 61 30 55 30 -5 1 -21 -5 -35 -12z"/>
<path d="M595 1930 c3 -5 8 -10 11 -10 2 0 4 5 4 10 0 6 -5 10 -11 10 -5 0 -7
-4 -4 -10z"/>
<path d="M688 1910 c-70 -26 -148 -64 -93 -45 22 8 161 58 185 68 13 5 13 5 0
5 -8 1 -50 -12 -92 -28z"/>
<path d="M1150 1920 c-6 -11 -9 -26 -7 -33 3 -7 10 1 16 17 14 35 7 47 -9 16z"/>
<path d="M1213 1933 c-16 -6 -17 -43 -2 -43 6 0 9 6 6 14 -3 8 -1 17 6 19 7 2
10 7 7 9 -3 3 -11 3 -17 1z"/>
<path d="M500 1895 c-11 -13 -10 -14 4 -9 9 3 16 10 16 15 0 13 -6 11 -20 -6z"/>
<path d="M1640 1902 c0 -4 9 -15 20 -25 11 -9 20 -13 20 -9 0 4 -9 15 -20 25
-11 9 -20 13 -20 9z"/>
<path d="M540 1890 c14 -9 7 -14 -13 -11 -5 1 -5 -3 -2 -9 5 -8 13 -6 26 6 23
21 24 19 -3 21 -18 2 -20 0 -8 -7z"/>
<path d="M1763 1870 c1 -16 7 -30 13 -30 7 0 9 10 6 25 -7 37 -22 41 -19 5z"/>
<path d="M1186 1871 c-4 -5 -1 -11 5 -13 8 -3 6 -10 -5 -21 -10 -9 -14 -17 -9
-17 4 0 1 -5 -7 -10 -10 -6 -11 -10 -3 -10 12 0 43 50 43 70 0 12 -17 13 -24
1z"/>
<path d="M555 1860 c-3 -5 -1 -10 4 -10 6 0 11 5 11 10 0 6 -2 10 -4 10 -3 0
-8 -4 -11 -10z"/>
<path d="M1125 1854 c-4 -10 -11 -27 -16 -36 -5 -10 -9 -25 -9 -33 0 -8 -5
-15 -12 -15 -6 0 -8 -3 -5 -6 3 -4 2 -15 -4 -25 -5 -11 -6 -19 -1 -19 8 0 37
70 34 83 -1 4 2 7 7 7 10 0 25 50 17 58 -3 2 -8 -4 -11 -14z"/>
<path d="M496 1838 c3 -4 -16 -9 -43 -10 -47 -1 -47 -2 -8 -5 24 -2 53 2 70
12 l30 15 -27 -2 c-15 -1 -24 -6 -22 -10z"/>
<path d="M1696 1827 c10 -15 25 -27 32 -27 18 0 15 4 -20 30 l-31 23 19 -26z"/>
<path d="M1170 1782 c0 -7 -5 -11 -12 -9 -7 1 -12 -8 -13 -21 0 -12 -7 -27
-15 -32 -13 -9 -13 -10 0 -10 15 0 54 69 45 79 -3 2 -5 -1 -5 -7z"/>
<path d="M1107 1682 c6 -14 25 -12 30 4 2 5 -5 10 -16 10 -11 0 -17 -5 -14
-14z"/>
<path d="M994 1670 c0 -13 4 -16 10 -10 7 7 7 13 0 20 -6 6 -10 3 -10 -10z"/>
<path d="M1092 1639 c-7 -11 -18 -17 -24 -13 -7 4 -8 3 -4 -4 3 -6 -3 -16 -14
-22 -11 -6 -20 -16 -20 -22 0 -6 10 -2 23 10 13 12 27 20 30 17 4 -3 5 -2 2 2
-3 3 2 15 12 25 9 10 14 20 12 23 -3 2 -10 -5 -17 -16z"/>
<path d="M976 1633 c-11 -11 -7 -20 9 -20 8 0 15 4 15 8 0 11 -16 20 -24 12z"/>
<path d="M960 1558 c0 -11 32 -10 50 2 11 7 6 9 -17 7 -18 -1 -33 -5 -33 -9z"/>
</g>
</svg>
