<?xml version="1.0" encoding="UTF-8"?>
<svg version="1.1" xmlns="http://www.w3.org/2000/svg" width="500" height="500">
<path d="M0 0 C7.97798378 -0.62572422 7.97798378 -0.62572422 12.0625 1.875 C14 4 14 4 14 6 C14.66 6 15.32 6 16 6 C21.56730589 17.19562336 24.61260606 27.58149303 26 40 C26.13019531 41.13179687 26.26039063 42.26359375 26.39453125 43.4296875 C28.0755328 61.40519738 26.64915326 79.19578079 24 97 C34.24205787 94.21289133 43.87897102 90.27285234 53.2578125 85.30859375 C55.59403491 84.19372978 57.91244758 83.22873832 60.3203125 82.28515625 C67.56445735 79.4197153 74.65527595 76.21302687 81.75 73 C82.47355682 72.67285004 83.19711365 72.34570007 83.94259644 72.00863647 C95.08316955 66.95529623 105.9172875 61.52063054 116.56640625 55.48828125 C128.0395562 49 128.0395562 49 132 49 C132.7578125 51.7265625 132.7578125 51.7265625 133 55 C123.63887963 68.03390444 104.87064082 74.57181971 90.71508789 80.79980469 C83.21023074 84.11730111 75.76365956 87.56517112 68.31030273 90.99633789 C60.20398235 94.72436063 52.09555258 98.44876 43.9375 102.0625 C42.75027344 102.58972656 41.56304687 103.11695313 40.33984375 103.66015625 C36.91269881 105.03502258 33.56405315 106.05109923 30 107 C30.76567866 108.58583248 31.53777965 110.16856494 32.3125 111.75 C32.74175781 112.63171875 33.17101562 113.5134375 33.61328125 114.421875 C34.92366072 117.01660815 34.92366072 117.01660815 36.66796875 119.203125 C38 121 38 121 38 123 C38.66 123 39.32 123 40 123 C44 128.41176471 44 128.41176471 44 131 C44.66 131 45.32 131 46 131 C46.0825 131.61875 46.165 132.2375 46.25 132.875 C46.79923543 135.15042479 46.79923543 135.15042479 48.875 136.125 C49.57625 136.41375 50.2775 136.7025 51 137 C51.99 137.66 52.98 138.32 54 139 C54.25660094 142.07921132 54.39431504 144.21136993 53 147 C51.41705218 147.05437607 49.83355744 147.09296271 48.25 147.125 C47.36828125 147.14820313 46.4865625 147.17140625 45.578125 147.1953125 C42.8864142 146.99139502 41.30095026 146.36551721 39 145 C39 144.34 39 143.68 39 143 C38.401875 142.731875 37.80375 142.46375 37.1875 142.1875 C35.00152146 141.00082594 33.58667406 139.90400887 32 138 C32 137.34 32 136.68 32 136 C31.34 136 30.68 136 30 136 C28.4921875 133.8828125 28.4921875 133.8828125 26.875 131.125 C26.06675781 129.76761719 26.06675781 129.76761719 25.2421875 128.3828125 C24 126 24 126 24 124 C23.34 124 22.68 124 22 124 C20.35 120.7 18.7 117.4 17 114 C12.77645939 120.16057354 12.77645939 120.16057354 9.1875 126.6875 C5.8960648 131.67167331 1.53175365 134.87110017 -4.1875 136.69921875 C-7.37765619 137.26112126 -9.67803375 137.12728898 -12.6875 135.9375 C-16.40185498 132.82547286 -19.43912122 129.68263634 -21 125 C-21.37125 126.7634375 -21.37125 126.7634375 -21.75 128.5625 C-23.30910026 134.77694186 -26.45092676 140.45092676 -31 145 C-33.75 146.375 -33.75 146.375 -37 146 C-41.22833488 142.33176172 -44.69458101 138.11661868 -47 133 C-47.99 133 -48.98 133 -50 133 C-51.17720095 138.1466058 -51.35215404 143.26871407 -51.62109375 148.52734375 C-51.99417792 151.94664089 -52.78998581 154.79125792 -54 158 C-57.1875 158.8125 -57.1875 158.8125 -61 159 C-65.57512474 155.38508663 -67.38793372 151.49402181 -69.3125 146.1875 C-69.57611328 145.49462891 -69.83972656 144.80175781 -70.11132812 144.08789062 C-70.7529127 142.39644038 -71.37817062 140.69881222 -72 139 C-72.99 139 -73.98 139 -75 139 C-75.09796875 139.78761719 -75.1959375 140.57523438 -75.296875 141.38671875 C-76.42042606 149.57120711 -78.36237423 157.17675076 -81 165 C-81.66 165 -82.32 165 -83 165 C-83.28875 165.61875 -83.5775 166.2375 -83.875 166.875 C-85 169 -85 169 -87 171 C-90.05622307 171.57041491 -92.93961852 171.52947776 -96 171 C-99.09632649 168.56246638 -100.82300487 166.26549269 -103 163 C-103.34611328 164.19882812 -103.34611328 164.19882812 -103.69921875 165.421875 C-111.57526421 191.94515853 -111.57526421 191.94515853 -122.03125 198.21875 C-125.16471877 199.46218999 -127.67066757 199.35045604 -131 199 C-135.38342135 196.45149922 -138.35133262 192.79531749 -140 188 C-141.33595736 178.18813539 -138.83294008 169.84429873 -133 162 C-133.53109375 162.2165625 -134.0621875 162.433125 -134.609375 162.65625 C-135.31578125 162.9346875 -136.0221875 163.213125 -136.75 163.5 C-137.44609375 163.7784375 -138.1421875 164.056875 -138.859375 164.34375 C-141 165 -141 165 -145 165 C-145 165.66 -145 166.32 -145 167 C-145.99 167.33 -146.98 167.66 -148 168 C-146.11357257 176.86620891 -144.00131815 185.56275256 -141 194.125 C-140.7632959 194.81005615 -140.5265918 195.4951123 -140.28271484 196.20092773 C-139.0640167 199.5756888 -137.69200217 202.66553828 -135.87890625 205.765625 C-133.76041479 209.41242528 -132.92179301 211.77682251 -133 216 C-135.0625 219 -135.0625 219 -138 221 C-141 221.1875 -141 221.1875 -144 220 C-146.06460812 218.12996228 -147.3866272 216.32515492 -149 214 C-149 213.34 -149 212.68 -149 212 C-149.66 212 -150.32 212 -151 212 C-151 211.34 -151 210.68 -151 210 C-151.66 210 -152.32 210 -153 210 C-153 209.34 -153 208.68 -153 208 C-153.85464844 207.58041016 -153.85464844 207.58041016 -154.7265625 207.15234375 C-156.97825701 206.01102093 -159.17553472 204.80114624 -161.375 203.5625 C-162.16390625 203.12550781 -162.9528125 202.68851563 -163.765625 202.23828125 C-165.5546527 201.2468096 -167.34038153 200.24938634 -169.125 199.25 C-172.4184862 197.81804948 -175.4485649 197.41781589 -179 197 C-179.33 196.67 -179.66 196.34 -180 196 C-182.67058851 195.85884839 -185.32432238 195.95752893 -188 196 C-188.40605469 197.45599609 -188.40605469 197.45599609 -188.8203125 198.94140625 C-190.06970484 203.30769215 -191.45535893 207.62397521 -192.875 211.9375 C-193.11863281 212.69740234 -193.36226563 213.45730469 -193.61328125 214.24023438 C-195.3212711 219.42172689 -197.45843279 224.17814191 -200 229 C-200.61294922 230.25683594 -200.61294922 230.25683594 -201.23828125 231.5390625 C-203.92053116 236.74750414 -206.86664115 240.98293074 -212 244 C-214.44414659 244.71466275 -216.4296944 244.89508957 -219 245 C-220.05854854 242.31917885 -220.10603773 241.25911164 -218.99609375 238.546875 C-218.22458984 237.16242188 -218.22458984 237.16242188 -217.4375 235.75 C-212.07688472 225.53871195 -204 209.69112741 -204 198 C-219.34464328 201.86165856 -234.43492764 205.73528307 -249 212 C-251.7175791 213.07307993 -254.45065366 214.10221611 -257.1875 215.125 C-257.88552734 215.38925781 -258.58355469 215.65351563 -259.30273438 215.92578125 C-265.59205741 218.28352937 -270.31364713 219.31839776 -277 219 C-277.99 218.34 -278.98 217.68 -280 217 C-279.9375 215.25 -279.9375 215.25 -279 213 C-274.95363739 210.14915362 -270.7676047 208.49702577 -266.140625 206.77734375 C-258.79209312 203.97562599 -251.64781911 200.7700089 -244.5 197.5 C-236.3703671 193.78082754 -228.23052562 190.21919405 -219.84057617 187.11547852 C-216.33259605 185.73791417 -213.02556516 184.08791898 -209.70703125 182.30859375 C-207 181 -207 181 -204.57739258 180.32666016 C-199.27874008 178.7893487 -199.27874008 178.7893487 -195.77319336 174.81030273 C-194.98519032 172.04329901 -194.48027891 169.34623803 -194.0625 166.5 C-193.72166213 164.61429161 -193.3792046 162.72887528 -193.03515625 160.84375 C-192.78946899 159.39802612 -192.78946899 159.39802612 -192.53881836 157.9230957 C-191.61039074 152.88636537 -190.2861521 147.95517798 -189 143 C-187.7622035 138.17280743 -186.54362557 133.34190154 -185.35571289 128.50219727 C-184.9953472 127.04955914 -184.62789577 125.59865939 -184.25317383 124.1496582 C-181.92267731 115.11322704 -180.50228693 106.88384442 -181.24482727 97.51545715 C-181.35424805 95.50073242 -181.35424805 95.50073242 -181 92 C-178.44423819 89.31583612 -176.99923568 88.14587382 -173.32421875 87.609375 C-172.45410156 87.65578125 -171.58398438 87.7021875 -170.6875 87.75 C-169.80449219 87.78609375 -168.92148438 87.8221875 -168.01171875 87.859375 C-167.34785156 87.90578125 -166.68398437 87.9521875 -166 88 C-163.81681921 92.01567977 -162.52715913 95.43728894 -161.859375 99.953125 C-161.67914795 101.11440918 -161.4989209 102.27569336 -161.31323242 103.47216797 C-161.12736572 104.71885254 -160.94149902 105.96553711 -160.75 107.25 C-158.87391508 119.19656375 -156.66322699 131.03814639 -154.1875 142.875 C-154.02866333 143.63558716 -153.86982666 144.39617432 -153.70617676 145.17980957 C-152.81193411 149.45487831 -151.909645 153.72817777 -151 158 C-146.60873634 156.77810562 -142.55250942 155.46466243 -138.4375 153.5 C-130.89785242 149.99944934 -130.89785242 149.99944934 -127 149 C-126.34 149.33 -125.68 149.66 -125 150 C-125 149.34 -125 148.68 -125 148 C-121.71536341 145.81024227 -118.79303725 145.00193437 -115 144 C-116.4547356 140.12070505 -118.2498811 136.5166464 -120.1953125 132.8671875 C-121 131 -121 131 -121 128 C-121.66 128 -122.32 128 -123 128 C-123.32613281 127.07058594 -123.65226563 126.14117187 -123.98828125 125.18359375 C-126.58006145 117.65877841 -126.58006145 117.65877841 -129.625 110.3125 C-134.40049153 98.80790676 -136.13725438 86.44741531 -136.3125 74.0625 C-136.33014404 73.35270996 -136.34778809 72.64291992 -136.3659668 71.91162109 C-136.35986519 67.22225759 -135.65411998 63.89231435 -133 60 C-130.04454808 58.6376774 -127.21475184 58.68515317 -124 59 C-115.33561745 62.90746664 -111.4058607 71.5086821 -108.12036133 79.93554688 C-102.93689233 93.94212534 -100.80964036 107.72300105 -100.875 122.625 C-100.87113281 123.51445312 -100.86726562 124.40390625 -100.86328125 125.3203125 C-100.87110113 130.63783311 -101.2273188 135.73840899 -102 141 C-100.89140625 140.65066406 -99.7828125 140.30132812 -98.640625 139.94140625 C-97.17710242 139.48171006 -95.7135597 139.022078 -94.25 138.5625 C-93.15558594 138.21735352 -93.15558594 138.21735352 -92.0390625 137.86523438 C-91.33007812 137.64287109 -90.62109375 137.42050781 -89.890625 137.19140625 C-89.24125977 136.98717041 -88.59189453 136.78293457 -87.92285156 136.57250977 C-85.96071312 135.98830273 -83.98950416 135.48189352 -82 135 C-82.04125 134.113125 -82.0825 133.22625 -82.125 132.3125 C-82.16071929 129.77132742 -81.91983196 127.6299161 -81.37890625 125.1328125 C-79.34779553 115.74609742 -81.26510763 109.68137182 -85 101 C-91.73954277 84.29469598 -94.04891521 66.40970801 -94.375 48.5 C-94.40110352 47.68748779 -94.42720703 46.87497559 -94.45410156 46.0378418 C-94.47128902 40.04985588 -93.12292299 35.14949321 -90 30 C-86.94008159 27.84978706 -85.24050867 27.9957052 -81.5 28.0625 C-75.26398067 29.73286232 -72.28055112 34.52614308 -69.1328125 39.8515625 C-64.87124683 47.93384223 -64.30962985 55.96267885 -64 65 C-63.95875 66.08023438 -63.9175 67.16046875 -63.875 68.2734375 C-63.64425491 80.41639761 -64.43686535 93.11235825 -67 105 C-67.56586681 111.4508816 -66.13201782 116.21556336 -63.875 122.265625 C-63 125 -63 125 -63 129 C-61.35 128.67 -59.7 128.34 -58 128 C-57.98582031 127.21238281 -57.97164062 126.42476563 -57.95703125 125.61328125 C-57.62226542 117.96795351 -56.77016489 106.77016489 -51 101 C-47.5625 100.8125 -47.5625 100.8125 -44 101 C-41.26175401 103.73824599 -41.09541563 106.69902693 -40.4375 110.375 C-39.34965559 116.21562825 -39.34965559 116.21562825 -38 122 C-34.61684386 121.14258612 -31.80942254 120.10046067 -29 118 C-27.47780626 114.35228118 -27.28983216 110.73210618 -27.0625 106.8125 C-26.89363821 104.79758522 -26.71821756 102.78320561 -26.53515625 100.76953125 C-26.477229 99.87854736 -26.41930176 98.98756348 -26.35961914 98.06958008 C-26.24094482 97.38661865 -26.12227051 96.70365723 -26 96 C-23.6203388 94.8101694 -22.08514265 94.86650034 -19.4375 94.875 C-18.22900391 94.87113281 -18.22900391 94.87113281 -16.99609375 94.8671875 C-15 95 -15 95 -14 96 C-13.76298761 98.85877909 -13.57780818 101.69883297 -13.4375 104.5625 C-13.39431641 105.36880859 -13.35113281 106.17511719 -13.30664062 107.00585938 C-13.20024738 109.00368805 -13.09959112 111.0018207 -13 113 C-5.76538861 110.48898268 1.40394443 107.99210913 8.328125 104.69921875 C10 104 10 104 12 104 C11.76925781 103.42894531 11.53851563 102.85789062 11.30078125 102.26953125 C8.88448565 96.26221926 6.54522406 90.22890139 4.24609375 84.17578125 C3.41264018 82.05165036 2.51017632 79.95337944 1.54296875 77.88671875 C-4.31004705 64.31318066 -6.91678427 47.71254046 -7 33 C-7.03633982 31.61975353 -7.07416582 30.2395456 -7.11328125 28.859375 C-7.3251341 19.10293488 -6.893462 10.67477354 -2 2 C-1.34 2 -0.68 2 0 2 C0 1.34 0 0.68 0 0 Z M5 9 C-0.64770716 32.72037005 8.03726426 60.45671626 15 83 C15.66 83 16.32 83 17 83 C17.05013796 77.72047242 17.0860615 72.44108907 17.10986328 67.16137695 C17.11980533 65.37228984 17.13336371 63.58321845 17.15087891 61.79418945 C17.28742966 47.46840881 17.25598825 33.30628652 12 19.75 C11.73960937 19.03199219 11.47921875 18.31398438 11.2109375 17.57421875 C10.05078993 14.43947658 8.86152203 11.79228304 7 9 C6.34 9 5.68 9 5 9 Z M-83 38 C-83.85109176 57.37608601 -81.57854439 75.41354136 -76 94 C-75.67 94 -75.34 94 -75 94 C-72.37812649 65.7323168 -72.37812649 65.7323168 -80 39 C-80.99 38.67 -81.98 38.34 -83 38 Z M-91 42 C-90 44 -90 44 -90 44 Z M-125 70 C-124.84526208 82.81511351 -123.30171406 93.92862432 -119 106 C-118.69658691 106.85352051 -118.39317383 107.70704102 -118.08056641 108.58642578 C-116.1115249 114.08006153 -114.07726249 119.54643768 -112 125 C-111.01 124.505 -111.01 124.505 -110 124 C-109.957279 122.33388095 -109.95936168 120.66617115 -110 119 C-110.33 118.67 -110.66 118.34 -111 118 C-111.13733605 116.16885265 -111.23303224 114.33456989 -111.3125 112.5 C-112.33445376 98.16120265 -116.01533234 82.12076974 -124 70 C-124.33 70 -124.66 70 -125 70 Z M-4.125 118.5 C-5.22070312 118.9640625 -6.31640625 119.428125 -7.4453125 119.90625 C-8.28835938 120.2671875 -9.13140625 120.628125 -10 121 C-9.39816251 123.02045442 -8.72693904 125.02111039 -8 127 C-7.34 127.33 -6.68 127.66 -6 128 C-1.44838484 125.90871736 1.10544608 122.96967394 4 119 C4 118.01 4 117.02 4 116 C0.97474767 116 -1.35579152 117.32161341 -4.125 118.5 Z M-50 119 C-50 120.98 -50 122.96 -50 125 C-49.34 124.67 -48.68 124.34 -48 124 C-48.33 122.35 -48.66 120.7 -49 119 C-49.33 119 -49.66 119 -50 119 Z M-173 122 C-173.09498779 122.57105469 -173.18997559 123.14210938 -173.2878418 123.73046875 C-175.40011484 136.34644258 -177.709428 148.88410418 -180.51245117 161.3671875 C-180.7210376 162.32367188 -180.92962402 163.28015625 -181.14453125 164.265625 C-181.33378174 165.10899414 -181.52303223 165.95236328 -181.71801758 166.82128906 C-182.18343529 169.17532893 -182.18343529 169.17532893 -181 172 C-175.72 169.36 -170.44 166.72 -165 164 C-167.04842293 149.95159594 -169.15819561 135.91411774 -172 122 C-172.33 122 -172.66 122 -173 122 Z M-36 128 C-36.33 128.99 -36.66 129.98 -37 131 C-36.01 131.99 -35.02 132.98 -34 134 C-31.7226499 131.18490007 -31.7226499 131.18490007 -32 128 C-33.32 128 -34.64 128 -36 128 Z M-61 136 C-60 138 -60 138 -60 138 Z M-92.6875 145.5 C-93.68136719 145.9640625 -94.67523438 146.428125 -95.69921875 146.90625 C-96.45847656 147.2671875 -97.21773437 147.628125 -98 148 C-96.58707905 152.8274799 -94.57025846 156.7162359 -92 161 C-91.34 161 -90.68 161 -90 161 C-87.49289691 155.06084316 -85.39938346 149.29722557 -84 143 C-87.55157911 143 -89.48763755 143.99418238 -92.6875 145.5 Z M-119 154 C-116.66785852 155.20628008 -114.50357861 156.1654738 -112 157 C-112 155.35 -112 153.7 -112 152 C-114.6465335 152 -116.5808163 152.98139634 -119 154 Z M-119 162 C-120.70884005 163.62339805 -122.37446717 165.29319053 -124 167 C-124 167.66 -124 168.32 -124 169 C-124.66 169 -125.32 169 -126 169 C-128.89356074 175.76527238 -128.89356074 175.76527238 -129 183 C-127.12230858 185.84920053 -127.12230858 185.84920053 -125 188 C-119.8179469 183.5376765 -116.62348416 178.39209952 -115.6484375 171.5234375 C-115.36100907 167.00688119 -115.36100907 167.00688119 -117.52734375 163.2421875 C-118.01332031 162.83226562 -118.49929687 162.42234375 -119 162 Z M-171.75 176.75 C-172.45382813 177.00265625 -173.15765625 177.2553125 -173.8828125 177.515625 C-178.37609522 179.18599032 -182.23908587 180.99599941 -186 184 C-186 184.99 -186 185.98 -186 187 C-184.76636719 187.05607422 -184.76636719 187.05607422 -183.5078125 187.11328125 C-172.83416229 187.74186804 -164.39663552 189.9536587 -155 195 C-155.4125 193.7625 -155.825 192.525 -156.25 191.25 C-158.16666667 185.5 -160.08333333 179.75 -162 174 C-165.43659692 174 -168.56192774 175.56161464 -171.75 176.75 Z " fill="#E4E4E4" transform="translate(315,100)"/>
<path d="M0 0 C7.97798378 -0.62572422 7.97798378 -0.62572422 12.0625 1.875 C14 4 14 4 14 6 C14.66 6 15.32 6 16 6 C21.56730589 17.19562336 24.61260606 27.58149303 26 40 C26.13019531 41.13179687 26.26039063 42.26359375 26.39453125 43.4296875 C28.0755328 61.40519738 26.64915326 79.19578079 24 97 C34.24205787 94.21289133 43.87897102 90.27285234 53.2578125 85.30859375 C55.59403491 84.19372978 57.91244758 83.22873832 60.3203125 82.28515625 C67.56445735 79.4197153 74.65527595 76.21302687 81.75 73 C82.47355682 72.67285004 83.19711365 72.34570007 83.94259644 72.00863647 C95.08316955 66.95529623 105.9172875 61.52063054 116.56640625 55.48828125 C128.0395562 49 128.0395562 49 132 49 C132.7578125 51.7265625 132.7578125 51.7265625 133 55 C123.63887963 68.03390444 104.87064082 74.57181971 90.71508789 80.79980469 C83.21023074 84.11730111 75.76365956 87.56517112 68.31030273 90.99633789 C60.20398235 94.72436063 52.09555258 98.44876 43.9375 102.0625 C42.75027344 102.58972656 41.56304687 103.11695313 40.33984375 103.66015625 C36.91269881 105.03502258 33.56405315 106.05109923 30 107 C30.76567866 108.58583248 31.53777965 110.16856494 32.3125 111.75 C32.74175781 112.63171875 33.17101562 113.5134375 33.61328125 114.421875 C34.92366072 117.01660815 34.92366072 117.01660815 36.66796875 119.203125 C38 121 38 121 38 123 C38.66 123 39.32 123 40 123 C44 128.41176471 44 128.41176471 44 131 C44.66 131 45.32 131 46 131 C46.0825 131.61875 46.165 132.2375 46.25 132.875 C46.79923543 135.15042479 46.79923543 135.15042479 48.875 136.125 C49.57625 136.41375 50.2775 136.7025 51 137 C52.485 137.99 52.485 137.99 54 139 C54.25660094 142.07921132 54.39431504 144.21136993 53 147 C51.41705218 147.05437607 49.83355744 147.09296271 48.25 147.125 C47.36828125 147.14820313 46.4865625 147.17140625 45.578125 147.1953125 C42.8864142 146.99139502 41.30095026 146.36551721 39 145 C39 144.34 39 143.68 39 143 C38.1028125 142.5978125 38.1028125 142.5978125 37.1875 142.1875 C35.00152146 141.00082594 33.58667406 139.90400887 32 138 C32 137.34 32 136.68 32 136 C31.34 136 30.68 136 30 136 C28.4921875 133.8828125 28.4921875 133.8828125 26.875 131.125 C26.33617187 130.22007812 25.79734375 129.31515625 25.2421875 128.3828125 C24 126 24 126 24 124 C23.34 124 22.68 124 22 124 C20.35 120.7 18.7 117.4 17 114 C12.77645939 120.16057354 12.77645939 120.16057354 9.1875 126.6875 C5.8960648 131.67167331 1.53175365 134.87110017 -4.1875 136.69921875 C-7.37765619 137.26112126 -9.67803375 137.12728898 -12.6875 135.9375 C-16.40185498 132.82547286 -19.43912122 129.68263634 -21 125 C-21.66 127.64 -22.32 130.28 -23 133 C-23.33 133 -23.66 133 -24 133 C-24 131.02 -24 129.04 -24 127 C-24.66 127 -25.32 127 -26 127 C-26.495 127.99 -26.495 127.99 -27 129 C-28.64363134 129.72159424 -30.31050386 130.39351421 -32 131 C-31.979375 130.21625 -31.95875 129.4325 -31.9375 128.625 C-31.81315937 126.01885039 -31.81315937 126.01885039 -33 124 C-32.34 124 -31.68 124 -31 124 C-28.40807743 117.44198901 -27.94849583 110.56378541 -27.14453125 103.61523438 C-27.02464844 102.65294922 -26.90476562 101.69066406 -26.78125 100.69921875 C-26.67876953 99.82096436 -26.57628906 98.94270996 -26.47070312 98.0378418 C-26.23770508 97.02911011 -26.23770508 97.02911011 -26 96 C-23.6203388 94.8101694 -22.08514265 94.86650034 -19.4375 94.875 C-18.22900391 94.87113281 -18.22900391 94.87113281 -16.99609375 94.8671875 C-15 95 -15 95 -14 96 C-13.76298761 98.85877909 -13.57780818 101.69883297 -13.4375 104.5625 C-13.39431641 105.36880859 -13.35113281 106.17511719 -13.30664062 107.00585938 C-13.20024738 109.00368805 -13.09959112 111.0018207 -13 113 C-5.76538861 110.48898268 1.40394443 107.99210913 8.328125 104.69921875 C10 104 10 104 12 104 C11.76925781 103.42894531 11.53851563 102.85789062 11.30078125 102.26953125 C8.88448565 96.26221926 6.54522406 90.22890139 4.24609375 84.17578125 C3.41264018 82.05165036 2.51017632 79.95337944 1.54296875 77.88671875 C-4.31004705 64.31318066 -6.91678427 47.71254046 -7 33 C-7.03633982 31.61975353 -7.07416582 30.2395456 -7.11328125 28.859375 C-7.3251341 19.10293488 -6.893462 10.67477354 -2 2 C-1.34 2 -0.68 2 0 2 C0 1.34 0 0.68 0 0 Z M5 9 C-0.64770716 32.72037005 8.03726426 60.45671626 15 83 C15.66 83 16.32 83 17 83 C17.05013796 77.72047242 17.0860615 72.44108907 17.10986328 67.16137695 C17.11980533 65.37228984 17.13336371 63.58321845 17.15087891 61.79418945 C17.28742966 47.46840881 17.25598825 33.30628652 12 19.75 C11.73960937 19.03199219 11.47921875 18.31398438 11.2109375 17.57421875 C10.05078993 14.43947658 8.86152203 11.79228304 7 9 C6.34 9 5.68 9 5 9 Z M-4.125 118.5 C-5.22070312 118.9640625 -6.31640625 119.428125 -7.4453125 119.90625 C-8.28835938 120.2671875 -9.13140625 120.628125 -10 121 C-9.39816251 123.02045442 -8.72693904 125.02111039 -8 127 C-7.34 127.33 -6.68 127.66 -6 128 C-1.44838484 125.90871736 1.10544608 122.96967394 4 119 C4 118.01 4 117.02 4 116 C0.97474767 116 -1.35579152 117.32161341 -4.125 118.5 Z " fill="#DFDFDF" transform="translate(315,100)"/>
<path d="M0 0 C0.66 0 1.32 0 2 0 C2 2.64 2 5.28 2 8 C1.01 8.495 1.01 8.495 0 9 C-0.33 9.99 -0.66 10.98 -1 12 C-1.99 12.66 -2.98 13.32 -4 14 C-4.66 13.34 -5.32 12.68 -6 12 C-8.87420123 14.71604715 -8.87420123 14.71604715 -11 18 C-11.66 18 -12.32 18 -13 18 C-13.80176255 20.98587431 -14.35728697 23.93309823 -14.75 27 C-14.86859375 27.845625 -14.9871875 28.69125 -15.109375 29.5625 C-14.97370924 32.5859083 -13.98904673 33.78539127 -12 36 C-7.68614204 32.45647382 -6.0278602 28.04807753 -4 23 C-3.12159004 26.09720845 -3.00564594 27.90645403 -4 31 C-3.34 31.33 -2.68 31.66 -2 32 C-1.01 31.67 -0.02 31.34 1 31 C1.33 30.34 1.66 29.68 2 29 C2.66 29.33 3.32 29.66 4 30 C0.80748289 37.15123833 -3.35411606 44.94763146 -11 48 C-14.97120318 48.43322217 -17.20517981 48.46210476 -20.6875 46.4375 C-25.20072904 41.68031263 -27.23644363 38.15933216 -27.4375 31.625 C-27.09233274 22.94820921 -24.34488743 15.67910954 -18.375 9.25 C-17.92125 8.8375 -17.4675 8.425 -17 8 C-16.34 7.34 -15.68 6.68 -15 6 C-10.61439726 3.92999551 -7.23191079 2.71903789 -2.4375 3.8125 C-1.633125 4.204375 -0.82875 4.59625 0 5 C0 3.35 0 1.7 0 0 Z " fill="#D6D6D6" transform="translate(202,251)"/>
<path d="M0 0 C6.8145195 6.07349499 9.11288963 15.0724372 9.8125 23.9375 C9.90391259 26.29072134 9.96624939 28.64524569 10 31 C10.02707031 32.17949219 10.05414063 33.35898438 10.08203125 34.57421875 C10.17310727 42.10041022 9.76773518 49.51458196 9 57 C7.68 56.67 6.36 56.34 5 56 C5 55.34 5 54.68 5 54 C5.66 54 6.32 54 7 54 C6.67 52.35 6.34 50.7 6 49 C3.35547425 49.71204241 3.35547425 49.71204241 1 52 C0.23437883 55.65557149 0.06962633 59.27182653 0 63 C-0.66 63 -1.32 63 -2 63 C-1.9278125 61.76765625 -1.855625 60.5353125 -1.78125 59.265625 C-0.88288214 43.50828471 -1.14198759 28.71630512 -3.42578125 13.0859375 C-4.20658429 7.30987644 -4.20658429 7.30987644 -2 4 C-2.33 3.01 -2.66 2.02 -3 1 C-2.01 0.67 -1.02 0.34 0 0 Z " fill="#DBDBDB" transform="translate(241,134)"/>
<path d="M0 0 C2.31 0.33 4.62 0.66 7 1 C3.9428127 14.14054191 -0.62623914 29.92080648 -12.625 37.625 C-16.10932867 39.04454131 -17.51618987 39.26684005 -21 38 C-20.41377105 34.32629857 -19.38675231 31.51724974 -17.625 28.25 C-15.22768479 23.62213933 -13.48233597 18.98932594 -12 14 C-10.02 14.99 -8.04 15.98 -6 17 C-5.83177734 15.95779297 -5.83177734 15.95779297 -5.66015625 14.89453125 C-4.91553885 11.62967036 -3.75599912 8.76399795 -2.4375 5.6875 C-1.75494141 4.08455078 -1.75494141 4.08455078 -1.05859375 2.44921875 C-0.70925781 1.64097656 -0.35992187 0.83273437 0 0 Z " fill="#DADADA" transform="translate(116,306)"/>
<path d="M0 0 C0.433125 0.495 0.86625 0.99 1.3125 1.5 C2.99740483 3.33218192 2.99740483 3.33218192 6 3 C6.33 3.99 6.66 4.98 7 6 C7.66 5.34 8.32 4.68 9 4 C15.4375 22.46875 15.4375 22.46875 15 31 C14.34 31 13.68 31 13 31 C12.14340865 34.08084955 11.73058631 37.06792001 11.4375 40.25 C11.35371094 41.14203125 11.26992187 42.0340625 11.18359375 42.953125 C11.12300781 43.62859375 11.06242188 44.3040625 11 45 C10.34 44.34 9.68 43.68 9 43 C8.34 43.66 7.68 44.32 7 45 C5.03676602 41.69391399 4.7520016 39.12743278 4.625 35.3125 C3.95891249 24.59454642 0.99065991 14.27284975 -2 4 C-1.34 4 -0.68 4 0 4 C0 2.68 0 1.36 0 0 Z " fill="#D9D9D9" transform="translate(198,177)"/>
<path d="M0 0 C0.7578125 2.7265625 0.7578125 2.7265625 1 6 C-6.69207362 16.71001639 -22.77887969 24.5811683 -35 29 C-35.66 28.67 -36.32 28.34 -37 28 C-36.38227513 23.4111867 -36.38227513 23.4111867 -35 21 C-32.72051621 19.64417321 -30.50522202 18.77297131 -27.99609375 17.921875 C-27.33738281 17.61765625 -26.67867188 17.3134375 -26 17 C-25.67 16.01 -25.34 15.02 -25 14 C-26.32 14.33 -27.64 14.66 -29 15 C-27.43493646 11.86987292 -24.73307346 11.24672952 -21.625 9.75 C-16.03837949 7.03818074 -10.5949986 4.16024657 -5.20703125 1.06640625 C-3 0 -3 0 0 0 Z " fill="#D6D6D6" transform="translate(447,149)"/>
<path d="M0 0 C0.66 1.65 1.32 3.3 2 5 C-5.44345122 14.45200155 -5.44345122 14.45200155 -9.0859375 15.734375 C-10.9375 15.75 -10.9375 15.75 -14 15 C-14.66 14.34 -15.32 13.68 -16 13 C-15.67582137 9.19090105 -15.14418558 7.21627837 -13 4 C-12.34 4 -11.68 4 -11 4 C-11 3.34 -11 2.68 -11 2 C-7.36576791 -0.32590854 -4.22911669 -0.16265833 0 0 Z " fill="#C8C8C8" transform="translate(287,166)"/>
<path d="M0 0 C0.80859375 2.6953125 0.80859375 2.6953125 1 6 C-1.08984375 8.5546875 -1.08984375 8.5546875 -3.9375 10.875 C-4.87464844 11.65617188 -5.81179688 12.43734375 -6.77734375 13.2421875 C-7.87755859 14.11230469 -7.87755859 14.11230469 -9 15 C-9.66 14.67 -10.32 14.34 -11 14 C-10.67 13.01 -10.34 12.02 -10 11 C-11.65 11.33 -13.3 11.66 -15 12 C-15.33 11.34 -15.66 10.68 -16 10 C-18.02463255 9.34786708 -18.02463255 9.34786708 -20 9 C-17.23456804 7.48987869 -14.46183193 5.99369852 -11.6875 4.5 C-10.90181641 4.07074219 -10.11613281 3.64148438 -9.30664062 3.19921875 C-8.54931641 2.79316406 -7.79199219 2.38710937 -7.01171875 1.96875 C-6.31522217 1.59169922 -5.61872559 1.21464844 -4.90112305 0.82617188 C-3 0 -3 0 0 0 Z " fill="#D2D2D2" transform="translate(447,149)"/>
<path d="M0 0 C0.598125 0.639375 1.19625 1.27875 1.8125 1.9375 C3.90810337 4.20310389 3.90810337 4.20310389 7 5 C7.33 4.34 7.66 3.68 8 3 C8.32613281 3.67546875 8.65226562 4.3509375 8.98828125 5.046875 C9.64376953 6.38492188 9.64376953 6.38492188 10.3125 7.75 C10.95638672 9.07257813 10.95638672 9.07257813 11.61328125 10.421875 C12.92366072 13.01660815 12.92366072 13.01660815 14.66796875 15.203125 C16 17 16 17 16 19 C16.66 19 17.32 19 18 19 C18.33 19.99 18.66 20.98 19 22 C18.34 22 17.68 22 17 22 C17 23.32 17 24.64 17 26 C12.11919141 23.94819511 10.37175647 20.56723373 8 16 C7.19389516 13.93249036 6.47150853 11.84949924 5.75390625 9.75 C4.6939919 7.28968068 2.9368648 5.80774048 1 4 C0.25 1.75 0.25 1.75 0 0 Z " fill="#CACACA" transform="translate(337,204)"/>
<path d="M0 0 C0.66 1.32 1.32 2.64 2 4 C1.01 4 0.02 4 -1 4 C-0.4740625 4.804375 -0.4740625 4.804375 0.0625 5.625 C1 8 1 8 0.51953125 10.63671875 C-0.19674222 15.27364701 0.35559552 19.71122379 0.859375 24.34179688 C1.31264255 29.57900779 1.31264255 29.57900779 -0.4765625 31.98828125 C-0.97929687 32.32214844 -1.48203125 32.65601563 -2 33 C-4.57749166 28.4665714 -4.36751869 24.41849374 -4.375 19.3125 C-4.39949219 18.45205078 -4.42398438 17.59160156 -4.44921875 16.70507812 C-4.47813892 10.30890117 -3.01604274 5.62111762 0 0 Z " fill="#CBCBCB" transform="translate(225,130)"/>
<path d="M0 0 C0.66 0.33 1.32 0.66 2 1 C1.7834375 2.423125 1.7834375 2.423125 1.5625 3.875 C1.22602897 6.128895 0.97573877 8.34636776 0.81640625 10.62109375 C0.75324219 11.50925781 0.69007812 12.39742188 0.625 13.3125 C0.57601562 14.15425781 0.52703125 14.99601562 0.4765625 15.86328125 C0 18 0 18 -3 20 C-3.66 19.67 -4.32 19.34 -5 19 C-5.20674944 13.21101581 -4.59162079 8.57067277 -3 3 C-2.34 3 -1.68 3 -1 3 C-0.67 2.01 -0.34 1.02 0 0 Z " fill="#E9E9E8" transform="translate(127,250)"/>
<path d="M0 0 C0.66 0.33 1.32 0.66 2 1 C1.04879722 4.64316882 0.31634594 5.80202052 -2.93359375 7.8359375 C-4.66802734 8.59777344 -4.66802734 8.59777344 -6.4375 9.375 C-7.59121094 9.89835938 -8.74492187 10.42171875 -9.93359375 10.9609375 C-13 12 -13 12 -16 11 C-13.69 10.01 -11.38 9.02 -9 8 C-10.98 8 -12.96 8 -15 8 C-11.96943208 5.55831021 -8.90981404 3.86972611 -5.375 2.25 C-4.41335938 1.80140625 -3.45171875 1.3528125 -2.4609375 0.890625 C-1.64882813 0.59671875 -0.83671875 0.3028125 0 0 Z " fill="#C3C3C3" transform="translate(396,173)"/>
<path d="M0 0 C0.80859375 2.6953125 0.80859375 2.6953125 1 6 C-1.08984375 8.5546875 -1.08984375 8.5546875 -3.9375 10.875 C-5.34322266 12.04675781 -5.34322266 12.04675781 -6.77734375 13.2421875 C-7.87755859 14.11230469 -7.87755859 14.11230469 -9 15 C-9.66 14.67 -10.32 14.34 -11 14 C-10 11 -10 11 -9 10 C-9.66 9.67 -10.32 9.34 -11 9 C-8.69 8.34 -6.38 7.68 -4 7 C-4.33 5.02 -4.66 3.04 -5 1 C-3 0 -3 0 0 0 Z " fill="#BEBEBE" transform="translate(447,149)"/>
<path d="M0 0 C0.66 0.33 1.32 0.66 2 1 C1.67 1.66 1.34 2.32 1 3 C2.65 2.67 4.3 2.34 6 2 C2.85488067 4.57672427 -0.32163947 6.17392493 -4.0625 7.75 C-5.10535156 8.19859375 -6.14820313 8.6471875 -7.22265625 9.109375 C-10 10 -10 10 -13 9 C-11.68 8.34 -10.36 7.68 -9 7 C-9.99 6.34 -10.98 5.68 -12 5 C-10.04578965 4.13644222 -8.08648653 3.28440066 -6.125 2.4375 C-5.03445313 1.96183594 -3.94390625 1.48617187 -2.8203125 0.99609375 C-1.88960938 0.66738281 -0.95890625 0.33867187 0 0 Z " fill="#BABAB9" transform="translate(358,190)"/>
<path d="M0 0 C-0.1640625 1.82421875 -0.1640625 1.82421875 -1 4 C-3.3984375 5.51953125 -3.3984375 5.51953125 -6.375 6.8125 C-7.35210937 7.25207031 -8.32921875 7.69164062 -9.3359375 8.14453125 C-12 9 -12 9 -15 8 C-13.36587557 6.29159719 -12.13093906 5.06546953 -10 4 C-9.566875 3.505 -9.13375 3.01 -8.6875 2.5 C-6.1119047 0.21058196 -3.36658899 0 0 0 Z " fill="#E8E8E8" transform="translate(422,163)"/>
<path d="M0 0 C4.21422242 2.88341534 5.76075855 5.04303419 7 10 C5.35 10 3.7 10 2 10 C1.67 8.68 1.34 7.36 1 6 C0.34 6 -0.32 6 -1 6 C-1.625 4.125 -1.625 4.125 -2 2 C-1.34 1.34 -0.68 0.68 0 0 Z " fill="#B6B6B6" transform="translate(197,165)"/>
<path d="M0 0 C0.33 0 0.66 0 1 0 C1 3.63 1 7.26 1 11 C0.67 11 0.34 11 0 11 C0 14.96 0 18.92 0 23 C-0.33 23 -0.66 23 -1 23 C-1.84942326 18.56261287 -2.16329619 14.32893048 -2.1875 9.8125 C-2.20167969 8.60207031 -2.21585938 7.39164063 -2.23046875 6.14453125 C-2 3 -2 3 0 0 Z " fill="#D0D0D0" transform="translate(181,166)"/>
<path d="M0 0 C0.66 0.33 1.32 0.66 2 1 C2 1.66 2 2.32 2 3 C1.2575 3.28875 0.515 3.5775 -0.25 3.875 C-2.56739797 4.82302644 -4.77917115 5.84845911 -7 7 C-6.34 7.66 -5.68 8.32 -5 9 C-8.37462715 8.45276317 -10.08235 7.9451 -13 6 C-10.87959258 4.96966118 -8.75352092 3.95097146 -6.625 2.9375 C-5.44164062 2.36902344 -4.25828125 1.80054688 -3.0390625 1.21484375 C-2.03617187 0.81394531 -1.03328125 0.41304687 0 0 Z " fill="#ACACAB" transform="translate(411,166)"/>
<path d="M0 0 C2.42479736 3.63719605 2.38662577 5.85703482 2.625 10.1875 C2.69976562 11.45980469 2.77453125 12.73210937 2.8515625 14.04296875 C2.92503906 15.50669922 2.92503906 15.50669922 3 17 C2.67 17 2.34 17 2 17 C1.67 18.98 1.34 20.96 1 23 C0.34 23 -0.32 23 -1 23 C-0.96970703 22.44538086 -0.93941406 21.89076172 -0.90820312 21.31933594 C-0.77102333 18.796283 -0.63549539 16.27314393 -0.5 13.75 C-0.42845703 12.44095703 -0.42845703 12.44095703 -0.35546875 11.10546875 C-0.31035156 10.26113281 -0.26523438 9.41679687 -0.21875 8.546875 C-0.17685547 7.77182617 -0.13496094 6.99677734 -0.09179688 6.19824219 C-0.00558463 4.13373418 0 2.0663073 0 0 Z " fill="#ADADAD" transform="translate(248,148)"/>
<path d="M0 0 C0.33 0.66 0.66 1.32 1 2 C2.98 1.67 4.96 1.34 7 1 C7 1.66 7 2.32 7 3 C6.29875 3.12117188 5.5975 3.24234375 4.875 3.3671875 C-0.81970105 4.37304502 -6.40894019 5.52311628 -12 7 C-10.58970126 4.17940253 -8.92108419 4.01898286 -6 3 C-5.278125 2.835 -4.55625 2.67 -3.8125 2.5 C-1.76715335 2.0962237 -1.76715335 2.0962237 0 0 Z " fill="#A7A7A7" transform="translate(107,287)"/>
<path d="M0 0 C1.32 0.33 2.64 0.66 4 1 C4 1.66 4 2.32 4 3 C3.34 3 2.68 3 2 3 C2 3.99 2 4.98 2 6 C1.360625 6.12375 0.72125 6.2475 0.0625 6.375 C-0.9584375 6.684375 -0.9584375 6.684375 -2 7 C-2.33 7.66 -2.66 8.32 -3 9 C-2.67 6.69 -2.34 4.38 -2 2 C-1.34 2 -0.68 2 0 2 C0 1.34 0 0.68 0 0 Z " fill="#D4D4D4" transform="translate(276,168)"/>
<path d="M0 0 C2 0 2 0 3.6875 1 C5.84668986 4.29019407 4.68121085 7.22237618 4 11 C3.34 10.67 2.68 10.34 2 10 C1.3671875 7.71484375 1.3671875 7.71484375 0.875 4.9375 C0.70742187 4.01839844 0.53984375 3.09929687 0.3671875 2.15234375 C0.24601563 1.44207031 0.12484375 0.73179687 0 0 Z " fill="#FBFBFA" transform="translate(249,227)"/>
<path d="M0 0 C1.32 0.33 2.64 0.66 4 1 C4 2.32 4 3.64 4 5 C4.66 5 5.32 5 6 5 C6 6.65 6 8.3 6 10 C5.67 8.68 5.34 7.36 5 6 C4.34 6 3.68 6 3 6 C2.67 7.32 2.34 8.64 2 10 C1.34 6.7 0.68 3.4 0 0 Z " fill="#CDCDCD" transform="translate(333,122)"/>
<path d="M0 0 C1.50416548 3.00833096 0.60839737 5.34961578 0.0625 8.625 C-0.13214844 9.81351563 -0.32679688 11.00203125 -0.52734375 12.2265625 C-0.68332031 13.14179687 -0.83929688 14.05703125 -1 15 C-1.66 15 -2.32 15 -3 15 C-2.67 11.7 -2.34 8.4 -2 5 C-2.66 5 -3.32 5 -4 5 C-4 3.68 -4 2.36 -4 1 C-2.68 0.67 -1.36 0.34 0 0 Z " fill="#D8D8D8" transform="translate(316,110)"/>
<path d="M0 0 C0 2.31 0 4.62 0 7 C-1.98 7.99 -1.98 7.99 -4 9 C-4 6.36 -4 3.72 -4 1 C-2 0 -2 0 0 0 Z " fill="#F8F8F8" transform="translate(213,208)"/>
<path d="M0 0 C0.33 0.66 0.66 1.32 1 2 C1.99 2 2.98 2 4 2 C3.43628586 5.26954202 2.50037734 6.82575883 0 9 C-0.87890625 2.84765625 -0.87890625 2.84765625 -1 1 C-0.67 0.67 -0.34 0.34 0 0 Z " fill="#CFCFCF" transform="translate(287,231)"/>
<path d="M0 0 C0.99 0 1.98 0 3 0 C3.33 0.99 3.66 1.98 4 3 C3.34 3 2.68 3 2 3 C2 4.32 2 5.64 2 7 C0.0625 6.25 0.0625 6.25 -2 5 C-2.75 2.875 -2.75 2.875 -3 1 C-2.01 1.33 -1.02 1.66 0 2 C0 1.34 0 0.68 0 0 Z " fill="#A5A5A5" transform="translate(352,223)"/>
<path d="M0 0 C1.65 0.33 3.3 0.66 5 1 C5 1.66 5 2.32 5 3 C1.6875 4.625 1.6875 4.625 -2 6 C-2.99 5.34 -3.98 4.68 -5 4 C-4.01 3.67 -3.02 3.34 -2 3 C-1.34 2.01 -0.68 1.02 0 0 Z " fill="#E6E6E5" transform="translate(398,173)"/>
<path d="M0 0 C0.33 1.98 0.66 3.96 1 6 C0.01 6.66 -0.98 7.32 -2 8 C-2 6.68 -2 5.36 -2 4 C-2.66 3.67 -3.32 3.34 -4 3 C-4.33 2.34 -4.66 1.68 -5 1 C-3 0 -3 0 0 0 Z " fill="#B5B5B5" transform="translate(447,149)"/>
<path d="M0 0 C0.66 0 1.32 0 2 0 C2 0.66 2 1.32 2 2 C1.34 2 0.68 2 0 2 C0 3.65 0 5.3 0 7 C0.66 7 1.32 7 2 7 C1.67 7.99 1.34 8.98 1 10 C0.01 10 -0.98 10 -2 10 C-2.1953125 3.9453125 -2.1953125 3.9453125 -2 2 C-1.34 1.34 -0.68 0.68 0 0 Z " fill="#F8F8F8" transform="translate(312,108)"/>
<path d="M0 0 C0.66 0.33 1.32 0.66 2 1 C1.1875 3.4375 1.1875 3.4375 0 6 C-0.99 6.33 -1.98 6.66 -3 7 C-3 6.01 -3 5.02 -3 4 C-4.32 4.33 -5.64 4.66 -7 5 C-5.47058649 1.94117299 -3.05780454 1.31048766 0 0 Z " fill="#AFAFAF" transform="translate(425,159)"/>
<path d="M0 0 C0.66 0 1.32 0 2 0 C2 0.66 2 1.32 2 2 C2.66 2 3.32 2 4 2 C4.33 3.98 4.66 5.96 5 8 C4.566875 7.34 4.13375 6.68 3.6875 6 C2.8521875 5.01 2.8521875 5.01 2 4 C1.01 4 0.02 4 -1 4 C-1.33 4.66 -1.66 5.32 -2 6 C-1.125 1.125 -1.125 1.125 0 0 Z " fill="#9E9E9D" transform="translate(241,235)"/>
<path d="M0 0 C-1.65 1.65 -3.3 3.3 -5 5 C-5.66 4.67 -6.32 4.34 -7 4 C-8.67654729 4.27942455 -10.34608154 4.60828247 -12 5 C-10.66272409 2.32544817 -9.26711677 2.01118615 -6.5625 0.8125 C-5.75941406 0.44769531 -4.95632813 0.08289063 -4.12890625 -0.29296875 C-2 -1 -2 -1 0 0 Z " fill="#919091" transform="translate(373,185)"/>
<path d="M0 0 C1.37562854 1.28965176 2.70766393 2.62689293 4 4 C4 4.66 4 5.32 4 6 C3.34 6 2.68 6 2 6 C2 5.34 2 4.68 2 4 C1.34 4 0.68 4 0 4 C-0.33 4.66 -0.66 5.32 -1 6 C-1.66 4.35 -2.32 2.7 -3 1 C-2.01 0.67 -1.02 0.34 0 0 Z " fill="#C1C1C1" transform="translate(241,134)"/>
<path d="M0 0 C1.485 0.99 1.485 0.99 3 2 C3.1875 5.625 3.1875 5.625 3 9 C2.01 9.495 2.01 9.495 1 10 C0.67 6.7 0.34 3.4 0 0 Z " fill="#FAFAFA" transform="translate(298,206)"/>
<path d="M0 0 C1.32 0 2.64 0 4 0 C4 0.99 4 1.98 4 3 C2.02 3.66 0.04 4.32 -2 5 C-1.34 3.35 -0.68 1.7 0 0 Z " fill="#F7F7F7" transform="translate(427,159)"/>
<path d="M0 0 C-2.97 2.475 -2.97 2.475 -6 5 C-6 4.34 -6 3.68 -6 3 C-7.65 3.33 -9.3 3.66 -11 4 C-9.71264403 1.42528807 -8.71510189 1.29583343 -6.0625 0.3125 C-5.35222656 0.04050781 -4.64195313 -0.23148437 -3.91015625 -0.51171875 C-2 -1 -2 -1 0 0 Z " fill="#838383" transform="translate(53,307)"/>
<path d="M0 0 C0 3.52032428 -0.70351351 4.4385343 -3 7 C-3.66 7 -4.32 7 -5 7 C-5 6.34 -5 5.68 -5 5 C-5.66 5 -6.32 5 -7 5 C-5.60683123 2.21366246 -3.84019484 2.06507306 -1 1 C-0.67 0.67 -0.34 0.34 0 0 Z " fill="#A3A3A3" transform="translate(314,224)"/>
<path d="M0 0 C0.33 0.66 0.66 1.32 1 2 C-1.97 3.32 -4.94 4.64 -8 6 C-6 2 -6 2 -2.875 0.75 C-1.92625 0.5025 -0.9775 0.255 0 0 Z " fill="#F5F5F5" transform="translate(366,188)"/>
<path d="M0 0 C0.66 0.33 1.32 0.66 2 1 C1.67 2.65 1.34 4.3 1 6 C0.67 5.34 0.34 4.68 0 4 C-0.66 4 -1.32 4 -2 4 C-2 5.65 -2 7.3 -2 9 C-2.33 9 -2.66 9 -3 9 C-3.36923077 3.46153846 -3.36923077 3.46153846 -1.5 1.125 C-1.005 0.75375 -0.51 0.3825 0 0 Z " fill="#828282" transform="translate(322,105)"/>
<path d="M0 0 C0.95465783 2.16967689 1.14401212 3.56328793 0.3984375 5.82421875 C-0.35870385 7.5684743 -1.17609198 9.28627131 -2 11 C-2.66 11 -3.32 11 -4 11 C-3.71125 10.29875 -3.4225 9.5975 -3.125 8.875 C-1.97866412 5.94547497 -0.97374346 2.99078347 0 0 Z " fill="#858585" transform="translate(198,274)"/>
<path d="M0 0 C0.66 0.33 1.32 0.66 2 1 C0 4 0 4 -2 4.8125 C-2.66 4.874375 -3.32 4.93625 -4 5 C-4.66 4.34 -5.32 3.68 -6 3 C-4.03533587 1.93224776 -2.03144641 0.93446535 0 0 Z " fill="#A5A5A5" transform="translate(396,173)"/>
</svg>
